<svg xmlns="http://www.w3.org/2000/svg" width="329.125" height="220.036" viewBox="0 0 329.125 220.036">
  <g id="_6505514-01" data-name="6505514-01" transform="translate(-36.12 -36.686)">
    <g id="Background_Complete" data-name="Background Complete" transform="translate(36.12 36.686)">
      <path id="Path_3096" data-name="Path 3096" d="M127.664,38.77s-5.975,2.251-6.134,3.485c0,0,1.319,4.481,7.025,7.673l-.279,2.1.926,2.987c.792-4.481,1.175-11.143,1.175-11.143S129.178,39.646,127.664,38.77Z" transform="translate(-79.004 -37.733)" fill="#ebebeb"/>
      <path id="Path_3097" data-name="Path 3097" d="M133.636,39.7s-.4,6.179,2.136,9.744C135.772,49.444,137.167,43.658,133.636,39.7Z" transform="translate(-85.071 -38.2)" fill="#e0e0e0"/>
      <path id="Path_3098" data-name="Path 3098" d="M135.042,43.608s-4.506-4.521-5.681-4.167c0,0-3.56,3.052-4.1,9.56l-2.026.612a12.243,12.243,0,0,0-8.738-5.168s-1.354,6.518-1.494,6.5a11.522,11.522,0,0,0,7.852.747c4.431-1.13,10.64-3.515,10.64-3.515S134.868,45.35,135.042,43.608Z" transform="translate(-74.721 -38.059)" fill="#ebebeb"/>
      <path id="Path_3099" data-name="Path 3099" d="M122.852,61.569s-5.382-1.21-8.992.184C113.86,61.753,119.252,64.029,122.852,61.569Z" transform="translate(-75.153 -48.935)" fill="#e0e0e0"/>
      <path id="Path_3100" data-name="Path 3100" d="M148.281,48s-5.8,2.171-8,5.975C140.28,53.975,146.115,52.87,148.281,48Z" transform="translate(-88.418 -42.367)" fill="#e0e0e0"/>
      <path id="Path_3101" data-name="Path 3101" d="M137.314,48.6l5.945,24.731L105.752,84.638,97.9,60.485Z" transform="translate(-67.139 -42.668)" fill="#ebebeb"/>
      <path id="Path_3102" data-name="Path 3102" d="M162.77,50.746,170.1,75.059l5.731-1.728L169.885,48.6Z" transform="translate(-99.71 -42.668)" fill="#e0e0e0"/>
      <path id="Path_3103" data-name="Path 3103" d="M169.126,50.31l6.373,24.6-1.3.393L166.87,50.992Z" transform="translate(-101.769 -43.527)" fill="#fafafa"/>
      <rect id="Rectangle_1194" data-name="Rectangle 1194" width="3.266" height="25.388" transform="translate(45.654 13.326) rotate(-16.78)" fill="#fafafa"/>
      <rect id="Rectangle_1195" data-name="Rectangle 1195" width="40.151" height="2.465" transform="matrix(0.955, -0.298, 0.298, 0.955, 34.223, 28.449)" fill="#fafafa"/>
      <path id="Path_3104" data-name="Path 3104" d="M657.6,212.929s-4.531-.324-4.979.413a10.288,10.288,0,0,0,2.26,7.055l-.807,1.275-.289,2.206c1.852-2.679,4.078-6.856,4.078-6.856S658.326,213.924,657.6,212.929Z" transform="translate(-345.647 -125.141)" fill="#ebebeb"/>
      <path id="Path_3105" data-name="Path 3105" d="M660.626,213.5s-2.1,3.874-1.519,6.936C659.107,220.436,661.736,217.11,660.626,213.5Z" transform="translate(-348.868 -125.464)" fill="#e0e0e0"/>
      <path id="Path_3106" data-name="Path 3106" d="M658.591,220.187s-1.568-4.267-2.435-4.387a10.272,10.272,0,0,0-5.477,4.979l-1.494-.209a8.709,8.709,0,0,0-4.1-5.94s-2.818,3.814-2.888,3.764a8.206,8.206,0,0,0,4.86,2.818c3.2.587,7.927.9,7.927.9S657.959,221.257,658.591,220.187Z" transform="translate(-340.43 -126.031)" fill="#ebebeb"/>
      <path id="Path_3107" data-name="Path 3107" d="M648.56,224.859s-3.122-2.385-5.87-2.559C642.69,222.3,645.5,225.372,648.56,224.859Z" transform="translate(-340.676 -129.882)" fill="#e0e0e0"/>
      <path id="Path_3108" data-name="Path 3108" d="M667.431,225.627s-4.4-.324-6.971,1.469C660.48,227.1,664.593,228.122,667.431,225.627Z" transform="translate(-349.599 -131.541)" fill="#e0e0e0"/>
      <path id="Path_3109" data-name="Path 3109" d="M656.279,228.1l-3.52,17.765-27.629-3.854,2.116-17.959Z" transform="translate(-331.86 -130.761)" fill="#ebebeb"/>
      <path id="Path_3110" data-name="Path 3110" d="M674.639,230.71l-2.5,17.9,4.222.593,3.52-17.765Z" transform="translate(-355.463 -134.105)" fill="#e0e0e0"/>
      <path id="Path_3111" data-name="Path 3111" d="M679.323,231.364l-3.2,17.805-.961-.134,2.5-17.9Z" transform="translate(-356.979 -134.316)" fill="#fafafa"/>
      <rect id="Rectangle_1196" data-name="Rectangle 1196" width="18.079" height="2.325" transform="translate(303.871 112.728) rotate(-82.06)" fill="#fafafa"/>
      <rect id="Rectangle_1197" data-name="Rectangle 1197" width="28.59" height="1.753" transform="matrix(0.992, 0.129, -0.129, 0.992, 294.455, 101.192)" fill="#fafafa"/>
      <path id="Path_3112" data-name="Path 3112" d="M89.6,207.839,75.737,177.965a3.261,3.261,0,0,0-1.952-1.763l-14.867-4.919a3.261,3.261,0,0,0-4.018,1.8L48.721,187.46a3.261,3.261,0,0,0,0,2.629l13.862,29.874a3.261,3.261,0,0,0,4.312,1.638l21.076-9.46A3.261,3.261,0,0,0,89.6,207.839ZM61.433,182.013a3.062,3.062,0,1,1,1.807-3.933A3.062,3.062,0,0,1,61.433,182.013Z" transform="translate(-42.308 -104.184)" fill="#e0e0e0"/>
      <path id="Path_3113" data-name="Path 3113" d="M89.6,207.839,75.737,177.965a3.261,3.261,0,0,0-1.952-1.763l-14.867-4.919a3.261,3.261,0,0,0-4.018,1.8L48.721,187.46a3.261,3.261,0,0,0,0,2.629l13.862,29.874a3.261,3.261,0,0,0,4.312,1.638l21.076-9.46A3.261,3.261,0,0,0,89.6,207.839ZM61.433,182.013a3.062,3.062,0,1,1,1.807-3.933A3.062,3.062,0,0,1,61.433,182.013Z" transform="translate(-42.308 -104.184)" fill="none"/>
      <path id="Path_3114" data-name="Path 3114" d="M65.17,215.647c-1.354-2.913-.344-5.522,2.141-6.677s5.153-.259,6.508,2.659.344,5.522-2.161,6.687S66.54,218.589,65.17,215.647Zm5.731-2.664c-.8-1.708-1.713-2.106-2.529-1.723s-1.105,1.334-.314,3.047,1.758,2.081,2.529,1.723,1.11-1.334.319-3.047Zm6.473-8.43,3.485-1.613-3.675,22.211L73.7,226.765Zm3.381,13.513c-1.354-2.913-.363-5.512,2.141-6.677s5.153-.259,6.508,2.659.344,5.522-2.161,6.687-5.113.269-6.478-2.669Zm5.741-2.649c-.8-1.708-1.733-2.091-2.529-1.723s-1.105,1.334-.314,3.047,1.733,2.091,2.529,1.723S87.292,217.11,86.5,215.418Z" transform="translate(-50.403 -120.162)" fill="#fff"/>
      <path id="Path_3115" data-name="Path 3115" d="M583.758,99.12,520.649,81.654a3.047,3.047,0,0,1-2.121-3.749l10.8-38.986a3.047,3.047,0,0,1,3.749-2.121l63.109,17.471a3.047,3.047,0,0,1,2.121,3.749L587.507,97A3.047,3.047,0,0,1,583.758,99.12Z" transform="translate(-278.279 -36.686)" fill="#e0e0e0"/>
      <path id="Path_3116" data-name="Path 3116" d="M536.794,95.929l-1.061,3.844-.393-.11.966-3.485-.9-.249.1-.349Z" transform="translate(-286.776 -66.257)" fill="#fff"/>
      <path id="Path_3117" data-name="Path 3117" d="M541.438,101.426l-.094.349-2.684-.742.08-.279,2.021-1.12c.553-.309.7-.543.777-.8.125-.443-.115-.8-.7-.966a1.349,1.349,0,0,0-1.165.139l-.214-.319a1.788,1.788,0,0,1,1.494-.169c.777.214,1.16.747,1,1.384-.1.368-.309.662-.961,1.026l-1.663.916Z" transform="translate(-288.443 -67.184)" fill="#fff"/>
      <path id="Path_3118" data-name="Path 3118" d="M549.351,103.167l-.767-.214-.279,1-.393-.11.279-1-2.161-.6.08-.284,2.733-1.992.438.12-2.644,1.932,1.663.463.244-.886.383.1-.244.886.767.214Z" transform="translate(-292.144 -68.461)" fill="#fff"/>
      <path id="Path_3119" data-name="Path 3119" d="M561.141,106.427l-.767-.214-.279,1-.393-.11.279-1-2.161-.6.08-.284,2.733-1.992.438.119-2.664,1.947,1.663.463.244-.886.383.1-.244.886.767.214Z" transform="translate(-298.063 -70.098)" fill="#fff"/>
      <path id="Path_3120" data-name="Path 3120" d="M568.308,107.911c-.179.652-.777,1.036-1.713.777a2.051,2.051,0,0,1-1.235-.871l.279-.259a1.723,1.723,0,0,0,1.036.767c.652.179,1.085-.04,1.215-.5s-.085-.881-1.061-1.155l-.817-.224.727-1.867,2.1.583-.1.349-1.753-.5-.468,1.185.5.134C568.168,106.656,568.492,107.234,568.308,107.911Z" transform="translate(-301.849 -70.776)" fill="#fff"/>
      <path id="Path_3121" data-name="Path 3121" d="M576.074,110.211a1.24,1.24,0,0,1-1.633.812c-1-.284-1.374-1.14-1.041-2.35a1.787,1.787,0,0,1,2.3-1.494,1.819,1.819,0,0,1,.851.458l-.249.274a1.394,1.394,0,0,0-.672-.363c-.827-.229-1.494.154-1.792,1.195a2.427,2.427,0,0,1-.07.314,1.27,1.27,0,0,1,1.354-.334,1.2,1.2,0,0,1,.951,1.489Zm-.393-.095a.871.871,0,0,0-.732-1.09.921.921,0,0,0-1.215.563c-.115.423.124.916.787,1.1a.866.866,0,0,0,1.16-.578Z" transform="translate(-305.827 -72.04)" fill="#fff"/>
      <path id="Path_3122" data-name="Path 3122" d="M586.423,112.87c-.179.642-.777,1-1.7.747a2.066,2.066,0,0,1-1.24-.876l.279-.259a1.742,1.742,0,0,0,1.065.772c.632.174,1.066,0,1.2-.5s-.109-.851-.822-1.046l-.274-.075.08-.289,1.429-1.036-1.957-.543.1-.349,2.46.682-.08.279-1.459,1.061C586.3,111.7,586.592,112.258,586.423,112.87Z" transform="translate(-310.947 -73.206)" fill="#fff"/>
      <path id="Path_3123" data-name="Path 3123" d="M594.3,115.266a1.24,1.24,0,0,1-1.633.817c-1-.284-1.374-1.14-1.041-2.35a1.785,1.785,0,0,1,2.3-1.494,1.822,1.822,0,0,1,.851.458l-.244.274a1.4,1.4,0,0,0-.692-.388c-.827-.229-1.494.154-1.792,1.195a2.446,2.446,0,0,1-.07.314,1.27,1.27,0,0,1,1.354-.334,1.2,1.2,0,0,1,.966,1.509Zm-.393-.095a.871.871,0,0,0-.732-1.09.921.921,0,0,0-1.215.563c-.115.423.125.916.787,1.1a.871.871,0,0,0,1.165-.578Z" transform="translate(-314.98 -74.58)" fill="#fff"/>
      <path id="Path_3124" data-name="Path 3124" d="M602.532,114.212l-.08.279-2.584,3.107-.428-.12,2.539-3.042-1.992-.548-.2.717-.388-.11.294-1.066Z" transform="translate(-318.941 -75.219)" fill="#fff"/>
      <path id="Path_3125" data-name="Path 3125" d="M613.532,117.212l-.08.279-2.584,3.107-.428-.119,2.539-3.042-1.992-.548-.2.717-.388-.11.294-1.066Z" transform="translate(-324.464 -76.725)" fill="#fff"/>
      <path id="Path_3126" data-name="Path 3126" d="M619.689,122.359c-.189.677-.876.941-1.792.687s-1.359-.831-1.17-1.494a1,1,0,0,1,1-.737.9.9,0,0,1-.368-1c.174-.622.812-.866,1.618-.642s1.245.762,1.07,1.384a.9.9,0,0,1-.846.672A1,1,0,0,1,619.689,122.359Zm-.4-.119c.129-.468-.194-.876-.871-1.066s-1.16,0-1.29.468.184.881.866,1.07,1.16,0,1.295-.468Zm-.787-1.379c.6.164,1.026,0,1.14-.418s-.184-.8-.757-.956-1,0-1.135.428.154.787.752.951Z" transform="translate(-327.619 -78.064)" fill="#fff"/>
      <path id="Path_3127" data-name="Path 3127" d="M627.5,123.563a1.785,1.785,0,0,1-2.3,1.494,1.822,1.822,0,0,1-.851-.458l.244-.274a1.4,1.4,0,0,0,.692.388c.827.229,1.494-.154,1.792-1.195a2.446,2.446,0,0,1,.07-.314,1.27,1.27,0,0,1-1.354.334,1.205,1.205,0,0,1-1-1.494,1.24,1.24,0,0,1,1.633-.817C627.477,121.472,627.835,122.333,627.5,123.563Zm-.334-.911c.115-.423-.125-.916-.787-1.1a.866.866,0,1,0-.433,1.663.921.921,0,0,0,1.215-.583Z" transform="translate(-331.468 -79.094)" fill="#fff"/>
      <path id="Path_3128" data-name="Path 3128" d="M638.054,123.953l-1.06,3.819-.393-.11.966-3.485-.9-.249.1-.349Z" transform="translate(-337.619 -80.315)" fill="#fff"/>
      <path id="Path_3129" data-name="Path 3129" d="M642.7,129.476l-.094.349-2.684-.742.08-.279,2.021-1.12c.553-.309.7-.543.777-.8.125-.443-.115-.8-.7-.966a1.349,1.349,0,0,0-1.165.139l-.214-.319a1.788,1.788,0,0,1,1.494-.169c.777.214,1.16.747,1,1.384-.1.368-.309.662-.961,1.026l-1.658.921Z" transform="translate(-339.286 -81.268)" fill="#fff"/>
      <path id="Path_3130" data-name="Path 3130" d="M649.843,130.44c-.179.642-.777,1-1.7.747a2.066,2.066,0,0,1-1.24-.876l.279-.259a1.738,1.738,0,0,0,1.065.772c.632.174,1.066,0,1.2-.5s-.115-.851-.822-1.046l-.274-.075.08-.289,1.429-1.036-1.957-.543.1-.349,2.46.682-.08.279-1.464,1.036C649.723,129.28,650.012,129.828,649.843,130.44Z" transform="translate(-342.79 -82.028)" fill="#fff"/>
      <rect id="Rectangle_1198" data-name="Rectangle 1198" width="1.728" height="31.831" transform="matrix(0.267, -0.964, 0.964, 0.267, 276.088, 45.857)" fill="#fff"/>
      <rect id="Rectangle_1199" data-name="Rectangle 1199" width="1.728" height="16.326" transform="matrix(0.267, -0.964, 0.964, 0.267, 290.11, 53.321)" fill="#fff"/>
      <g id="Group_110" data-name="Group 110" transform="translate(247.466 16.787)" opacity="0.5">
        <rect id="Rectangle_1200" data-name="Rectangle 1200" width="13.317" height="9.951" rx="4.946" transform="translate(2.694 0) rotate(15.709)" fill="#f5f5f5"/>
      </g>
      <path id="Path_3131" data-name="Path 3131" d="M536.89,78.963l.169-.617,6.627,1.837a1.439,1.439,0,1,0,.767-2.774l-6.622-1.832L538,74.96l6.627,1.837a2.081,2.081,0,1,1-1.11,3.983Z" transform="translate(-287.555 -55.903)" fill="#e0e0e0"/>
      <rect id="Rectangle_1201" data-name="Rectangle 1201" width="0.642" height="4.72" transform="translate(258.121 23.669) rotate(-74.46)" fill="#e0e0e0"/>
      <rect id="Rectangle_1202" data-name="Rectangle 1202" width="34.345" height="2.948" transform="translate(254.967 8.632) rotate(15.49)" fill="#fff"/>
      <rect id="Rectangle_1203" data-name="Rectangle 1203" width="6.911" height="6.911" rx="3.15" transform="translate(305.644 20.619) rotate(15.49)" fill="#fff"/>
      <path id="Path_3132" data-name="Path 3132" d="M78.251,317.466c-.03,0-.06-.413-.2-1.145a14.3,14.3,0,0,0-.911-2.987,11.452,11.452,0,0,0-2.6-3.814,7.254,7.254,0,0,0-10.2-.035,11.411,11.411,0,0,0-2.619,3.8,14.27,14.27,0,0,0-.926,2.987c-.144.732-.174,1.145-.2,1.14a1.221,1.221,0,0,1,0-.3,8.42,8.42,0,0,1,.095-.861,13.026,13.026,0,0,1,.851-3.062,11.348,11.348,0,0,1,2.624-3.914,7.469,7.469,0,0,1,10.556.035,11.387,11.387,0,0,1,2.6,3.923,13.05,13.05,0,0,1,.836,3.067,8.42,8.42,0,0,1,.09.861A1.215,1.215,0,0,1,78.251,317.466Z" transform="translate(-48.402 -172.464)" fill="#e0e0e0"/>
      <path id="Path_3133" data-name="Path 3133" d="M84.381,317.445c-.03,0-.06-.413-.2-1.145a14.306,14.306,0,0,0-.911-2.987,11.452,11.452,0,0,0-2.6-3.814,7.254,7.254,0,0,0-10.2-.035,11.413,11.413,0,0,0-2.619,3.784,14.275,14.275,0,0,0-.926,2.987c-.144.732-.174,1.145-.2,1.14a1.209,1.209,0,0,1,0-.3,8.424,8.424,0,0,1,.095-.861,13.026,13.026,0,0,1,.851-3.062,11.347,11.347,0,0,1,2.624-3.913,7.469,7.469,0,0,1,10.556.035,11.386,11.386,0,0,1,2.6,3.923,13.055,13.055,0,0,1,.836,3.067,8.417,8.417,0,0,1,.09.861,1.215,1.215,0,0,1,0,.324Z" transform="translate(-51.48 -172.444)" fill="#e0e0e0"/>
      <path id="Path_3134" data-name="Path 3134" d="M39.575,325.454l34.45-.264.752,46.957H36.12Z" transform="translate(-36.12 -181.543)" fill="#ebebeb"/>
      <path id="Path_3135" data-name="Path 3135" d="M112.25,325.19h4.327l3.719,46.957H113Z" transform="translate(-74.345 -181.543)" fill="#e0e0e0"/>
      <rect id="Rectangle_1204" data-name="Rectangle 1204" width="22.55" height="3.779" transform="translate(8.051 162.134)" fill="#fff"/>
      <path id="Path_3136" data-name="Path 3136" d="M630.181,317.466c-.03,0-.06-.413-.2-1.145a14.308,14.308,0,0,0-.911-2.987,11.453,11.453,0,0,0-2.6-3.814,7.254,7.254,0,0,0-10.2-.035,11.412,11.412,0,0,0-2.619,3.8,14.274,14.274,0,0,0-.926,2.987c-.144.732-.174,1.145-.2,1.14a1.216,1.216,0,0,1,0-.3,8.4,8.4,0,0,1,.094-.861,13.031,13.031,0,0,1,.851-3.062,11.35,11.35,0,0,1,2.624-3.913,7.469,7.469,0,0,1,10.556.035,11.387,11.387,0,0,1,2.6,3.924,13.043,13.043,0,0,1,.836,3.067,8.353,8.353,0,0,1,.09.861A1.215,1.215,0,0,1,630.181,317.466Z" transform="translate(-325.524 -172.464)" fill="#e0e0e0"/>
      <path id="Path_3137" data-name="Path 3137" d="M636.331,317.466c-.03,0-.06-.413-.2-1.145a14.292,14.292,0,0,0-.911-2.987,11.45,11.45,0,0,0-2.6-3.814,7.254,7.254,0,0,0-10.2-.035,11.413,11.413,0,0,0-2.619,3.8,14.273,14.273,0,0,0-.926,2.987c-.145.732-.174,1.145-.2,1.14a1.2,1.2,0,0,1,0-.3,8.4,8.4,0,0,1,.094-.861,13.032,13.032,0,0,1,.852-3.062,11.346,11.346,0,0,1,2.624-3.914,7.469,7.469,0,0,1,10.556.035,11.389,11.389,0,0,1,2.6,3.923,13.05,13.05,0,0,1,.836,3.067,8.42,8.42,0,0,1,.09.861A1.216,1.216,0,0,1,636.331,317.466Z" transform="translate(-328.611 -172.464)" fill="#e0e0e0"/>
      <path id="Path_3138" data-name="Path 3138" d="M591.536,325.454l34.445-.264.752,46.957H588.08Z" transform="translate(-313.257 -181.543)" fill="#ebebeb"/>
      <path id="Path_3139" data-name="Path 3139" d="M664.2,325.19h4.327l3.724,46.957h-7.3Z" transform="translate(-351.477 -181.543)" fill="#e0e0e0"/>
      <rect id="Rectangle_1205" data-name="Rectangle 1205" width="22.55" height="3.779" transform="translate(282.874 162.134)" fill="#fff"/>
    </g>
    <g id="Floor" transform="translate(36.493 226.977)">
      <path id="Path_3140" data-name="Path 3140" d="M365.621,419c0,.07-73.6.129-164.368.129S36.87,419.069,36.87,419s73.585-.13,164.383-.13S365.621,418.935,365.621,419Z" transform="translate(-36.87 -418.87)" fill="#263238"/>
    </g>
    <g id="Box" transform="translate(48.986 190.914)">
      <rect id="Rectangle_1206" data-name="Rectangle 1206" width="47.784" height="36.123" transform="translate(0 0.075)" fill="#ae7461"/>
      <g id="Group_111" data-name="Group 111" transform="translate(24.238 2.634)" opacity="0.3">
        <path id="Path_3141" data-name="Path 3141" d="M121.78,353.413V351.73h2.9v1.683a1.434,1.434,0,0,1-1.265,1.4v1.464h.642c.224,0,.408.129.408.284h-2.49c0-.154.184-.284.408-.284h.642v-1.464A1.434,1.434,0,0,1,121.78,353.413Z" transform="translate(-116.233 -351.73)" fill-rule="evenodd"/>
        <path id="Path_3142" data-name="Path 3142" d="M110.64,353.3a2.1,2.1,0,0,1,2.041-1.568h0a2.1,2.1,0,0,1,2.041,1.568h-1.847v2.639a.408.408,0,0,0,.817,0h.393a.8.8,0,1,1-1.6,0V353.3Z" transform="translate(-110.64 -351.73)" fill-rule="evenodd"/>
      </g>
      <g id="Group_112" data-name="Group 112" transform="translate(35.934 0.07)" opacity="0.3">
        <rect id="Rectangle_1207" data-name="Rectangle 1207" width="11.85" height="36.123" transform="translate(11.85 36.123) rotate(180)"/>
      </g>
      <ellipse id="Ellipse_243" data-name="Ellipse 243" cx="0.119" cy="17.89" rx="0.119" ry="17.89" transform="translate(35.789 0.055)" fill="#263238"/>
      <rect id="Rectangle_1208" data-name="Rectangle 1208" width="3.665" height="4.058" transform="translate(40.071 27.868)" fill="#fff"/>
      <g id="Group_113" data-name="Group 113" transform="translate(14.579 0.164)" opacity="0.3">
        <rect id="Rectangle_1209" data-name="Rectangle 1209" width="5.427" height="7.708"/>
      </g>
      <g id="Group_114" data-name="Group 114" transform="translate(14.579 28.381)" opacity="0.3">
        <rect id="Rectangle_1210" data-name="Rectangle 1210" width="5.427" height="7.708"/>
      </g>
      <path id="Path_3143" data-name="Path 3143" d="M62.66,346.535c0,.055,10.6.095,23.665.095s23.67-.045,23.67-.095-10.6-.095-23.67-.095S62.66,346.48,62.66,346.535Z" transform="translate(-62.311 -346.44)" fill="#263238"/>
      <path id="Path_3144" data-name="Path 3144" d="M96.795,381.637H88.764a.349.349,0,1,1,0-.692h7.742l.836-4.616H88.007a.349.349,0,1,1,0-.692h9.759a.348.348,0,0,1,.344.408l-.961,5.313A.349.349,0,0,1,96.795,381.637Z" transform="translate(-74.842 -361.099)" fill="#e0e0e0"/>
      <path id="Path_3145" data-name="Path 3145" d="M93.819,382.063h0l-7.653-.025a.349.349,0,0,1-.344-.3l-1.08-8.255H82.607a.349.349,0,1,1,0-.692h2.44a.349.349,0,0,1,.344.3l1.08,8.265h7.349a.349.349,0,0,1,0,.692Z" transform="translate(-72.131 -359.668)" fill="#e0e0e0"/>
      <path id="Path_3146" data-name="Path 3146" d="M91.39,394.2a1.28,1.28,0,1,1,1.3-1.28,1.28,1.28,0,0,1-1.3,1.28Zm0-1.867a.588.588,0,1,0,.607.588.6.6,0,0,0-.607-.6Z" transform="translate(-76.104 -369.135)" fill="#e0e0e0"/>
      <path id="Path_3147" data-name="Path 3147" d="M101.99,394.2a1.28,1.28,0,1,1,1.3-1.28,1.28,1.28,0,0,1-1.3,1.28Zm0-1.867a.588.588,0,1,0,.607.588.6.6,0,0,0-.607-.6Z" transform="translate(-81.426 -369.135)" fill="#e0e0e0"/>
      <path id="Path_3148" data-name="Path 3148" d="M94.222,381.843a.349.349,0,0,1-.344-.324l-.329-5.138a.349.349,0,0,1,.692-.045l.329,5.138a.349.349,0,0,1-.324.368Z" transform="translate(-77.821 -361.305)" fill="#e0e0e0"/>
      <path id="Path_3149" data-name="Path 3149" d="M100.468,381.81h0a.349.349,0,0,1-.329-.364l.294-5.138a.343.343,0,0,1,.363-.329.348.348,0,0,1,.329.363l-.314,5.123A.349.349,0,0,1,100.468,381.81Z" transform="translate(-81.13 -361.271)" fill="#e0e0e0"/>
      <path id="Path_3150" data-name="Path 3150" d="M88.69,381.747a.349.349,0,0,1,0-.692l8.962-.085h0a.349.349,0,0,1,0,.692Z" transform="translate(-75.227 -363.777)" fill="#e0e0e0"/>
    </g>
    <g id="Plants" transform="translate(326.796 159.912)">
      <path id="Path_3151" data-name="Path 3151" d="M656.2,354.492s-1.932-13.289-1.773-21.021,0-16.431,0-16.431h.891s-.6,15.345.055,24.6,2.385,12.846,2.385,12.846H656.2" transform="translate(-637.243 -300.677)" fill="#263238"/>
      <path id="Path_3152" data-name="Path 3152" d="M660.6,285.582a2.345,2.345,0,0,0-.812-1.19,2.308,2.308,0,0,0-1.937,0c-2.694.951-5.079,5.975-6.164,8.609l3.575,12.039C661.708,299.08,662.828,291.228,660.6,285.582Z" transform="translate(-635.872 -284.175)" fill="#455a64"/>
      <path id="Path_3153" data-name="Path 3153" d="M663.187,285.61a.7.7,0,0,1-.05.159l-.174.438c-.154.378-.378.931-.637,1.613-.528,1.369-1.2,3.276-1.8,5.432s-1,4.138-1.26,5.581c-.129.722-.224,1.3-.284,1.713l-.075.468a.711.711,0,0,1-.035.159.685.685,0,0,1,0-.164l.05-.468c.045-.408.125-1,.239-1.723a51.2,51.2,0,0,1,3.057-11.024c.274-.682.5-1.225.682-1.6l.2-.428A.7.7,0,0,1,663.187,285.61Z" transform="translate(-639.477 -284.896)" fill="#263238"/>
      <path id="Path_3154" data-name="Path 3154" d="M650.1,314.195a10.9,10.9,0,0,1-5.507-9.151,19.95,19.95,0,0,1,1.623-7.8,1,1,0,0,1,.378-.568.961.961,0,0,1,.911.144c2.435,1.384,3.909,4.028,4.69,6.717a13.552,13.552,0,0,1,.558,5.522,9.175,9.175,0,0,1-2.649,5.138" transform="translate(-632.303 -290.422)" fill="#455a64"/>
      <path id="Path_3155" data-name="Path 3155" d="M653.3,316.164a.675.675,0,0,1,0-.159v-.463c0-.4,0-1-.05-1.7a46.434,46.434,0,0,0-.622-5.562c-.374-2.156-.822-4.088-1.155-5.477l-.4-1.653-.1-.453a.664.664,0,0,1-.025-.159.68.68,0,0,1,.055.154l.13.443c.109.388.264.946.443,1.643.358,1.389.827,3.321,1.2,5.477a40.68,40.68,0,0,1,.583,5.581V316A.668.668,0,0,1,653.3,316.164Z" transform="translate(-635.495 -292.392)" fill="#263238"/>
      <g id="Group_115" data-name="Group 115" transform="translate(12.28 6.195)" opacity="0.3">
        <path id="Path_3156" data-name="Path 3156" d="M650.1,314.195a10.9,10.9,0,0,1-5.507-9.151,19.95,19.95,0,0,1,1.623-7.8,1,1,0,0,1,.378-.568.961.961,0,0,1,.911.144c2.435,1.384,3.909,4.028,4.69,6.717a13.552,13.552,0,0,1,.558,5.522,9.175,9.175,0,0,1-2.649,5.138" transform="translate(-644.583 -296.617)"/>
      </g>
      <path id="Path_3157" data-name="Path 3157" d="M663.26,372.484c3.3.722,6.01,3.047,9.191,4.177,2.106.747,4.481,1,6.164,2.49a5.335,5.335,0,0,0-2.285-2.275,40.994,40.994,0,0,0-8.33-3.983,7.881,7.881,0,0,0-4.645-.5" transform="translate(-641.681 -328.377)" fill="#455a64"/>
      <path id="Path_3158" data-name="Path 3158" d="M641,374.269c-4.128-.065-8.464-3.58-12.582-3.789,4.3-1.389,10.456-.254,12.582,3.789" transform="translate(-624.188 -327.224)" fill="#455a64"/>
      <path id="Path_3159" data-name="Path 3159" d="M656.925,353.679a13.444,13.444,0,0,1,6.6-.448,40.127,40.127,0,0,1,6.443,1.753c-.214-1.434-1.369-2.49-2.46-3.485a17.189,17.189,0,0,0-2.589-1.992,5.765,5.765,0,0,0-3.1-.876,4.9,4.9,0,0,0-3.426,1.728,5.686,5.686,0,0,0-1.469,3.3" transform="translate(-638.498 -316.538)" fill="#455a64"/>
      <path id="Path_3160" data-name="Path 3160" d="M629.878,347.628c-2.6-2.221-6.532-1.992-9.958-1.927a81.043,81.043,0,0,1,15.435,9.615C635.495,352.905,633.159,350.431,629.878,347.628Z" transform="translate(-619.92 -315.047)" fill="#455a64"/>
      <g id="Group_116" data-name="Group 116" transform="translate(0 30.614)" opacity="0.3">
        <path id="Path_3161" data-name="Path 3161" d="M629.878,347.628c-2.6-2.221-6.532-1.992-9.958-1.927a81.043,81.043,0,0,1,15.435,9.615C635.495,352.905,633.159,350.431,629.878,347.628Z" transform="translate(-619.92 -345.662)"/>
      </g>
      <path id="Path_3162" data-name="Path 3162" d="M659.257,332.71a28.929,28.929,0,0,1,3.983-2.32c1.369-.622,2.644-1.613,3.983-2.325a43.16,43.16,0,0,0,4.77-3.366,12.38,12.38,0,0,1,5.223-2.49,10.272,10.272,0,0,0-4.755.274,30.694,30.694,0,0,0-4.481,1.743,21.746,21.746,0,0,0-5.746,3.331c-1.658,1.484-3.157,2.948-2.987,5.163" transform="translate(-639.659 -303.192)" fill="#455a64"/>
      <path id="Path_3163" data-name="Path 3163" d="M668.942,375.5a.5.5,0,0,1-.129-.055l-.359-.184c-.309-.164-.757-.408-1.319-.692-.279-.149-.588-.3-.921-.458s-.692-.329-1.07-.5a15.712,15.712,0,0,0-2.539-.886,5.477,5.477,0,0,0-2.649-.065,7.548,7.548,0,0,0-1.12.334,5.717,5.717,0,0,0-.906.463,5.793,5.793,0,0,0-1.14.941c-.239.254-.354.413-.368.4a.492.492,0,0,1,.075-.12,3.8,3.8,0,0,1,.249-.324,5.33,5.33,0,0,1,1.125-1,5.626,5.626,0,0,1,.916-.5,7.43,7.43,0,0,1,1.135-.353,5.506,5.506,0,0,1,2.714.055,15.071,15.071,0,0,1,2.564.906c.383.169.742.339,1.071.5a9.228,9.228,0,0,1,.916.5c.558.294,1,.553,1.3.737l.349.209A.5.5,0,0,1,668.942,375.5Z" transform="translate(-638.247 -328.458)" fill="#263238"/>
      <path id="Path_3164" data-name="Path 3164" d="M647.51,374.55a.942.942,0,0,1,.259.075,5.794,5.794,0,0,1,.672.294,8.166,8.166,0,0,1,3.45,3.311,5.784,5.784,0,0,1,.319.662.938.938,0,0,1,.085.254s-.179-.339-.5-.861a9.137,9.137,0,0,0-3.406-3.271C647.854,374.714,647.5,374.575,647.51,374.55Z" transform="translate(-633.773 -329.552)" fill="#263238"/>
      <path id="Path_3165" data-name="Path 3165" d="M629.16,349.2a.845.845,0,0,1,.174.05l.5.174.782.289c.3.115.637.279,1,.443A23.847,23.847,0,0,1,637,353.582a26.194,26.194,0,0,1,2.49,2.49,27.643,27.643,0,0,1,1.778,2.256c.473.667.826,1.225,1.075,1.608l.284.443a.092.092,0,1,1-.025.015c-.075-.095-.179-.239-.3-.428-.259-.373-.627-.921-1.11-1.578s-1.085-1.419-1.8-2.226a27.481,27.481,0,0,0-2.49-2.445,25.164,25.164,0,0,0-5.328-3.46c-.368-.169-.7-.344-1-.463l-.772-.309-.5-.2A.862.862,0,0,1,629.16,349.2Z" transform="translate(-624.559 -316.824)" fill="#263238"/>
      <path id="Path_3166" data-name="Path 3166" d="M662.582,353.8a1.45,1.45,0,0,1-.329-.045l-.378-.07c-.149-.03-.319-.03-.5-.05a5.192,5.192,0,0,0-2.838.558,5.125,5.125,0,0,0-1.29.956,5.839,5.839,0,0,0-.831,1.026,8.511,8.511,0,0,0-.568,1.085,1.212,1.212,0,0,1,.085-.324,4.6,4.6,0,0,1,.393-.817,5.477,5.477,0,0,1,.822-1.066,5.024,5.024,0,0,1,4.232-1.524,4.8,4.8,0,0,1,.5.07l.379.095A1.425,1.425,0,0,1,662.582,353.8Z" transform="translate(-637.96 -318.982)" fill="#263238"/>
      <path id="Path_3167" data-name="Path 3167" d="M666.533,328.26a.858.858,0,0,1-.154.095l-.458.249c-.4.214-1,.533-1.678.946s-1.494.931-2.39,1.553a19.971,19.971,0,0,0-2.669,2.236,6.78,6.78,0,0,0-1.09,1.414c-.269.5-.528,1.021-.767,1.494a27.191,27.191,0,0,0-1.145,2.609,15.934,15.934,0,0,0-.558,1.837c-.1.443-.144.692-.159.687a.845.845,0,0,1,0-.184,2.8,2.8,0,0,1,.084-.5,13.686,13.686,0,0,1,.5-1.862,25.108,25.108,0,0,1,1.125-2.634c.234-.5.5-1,.762-1.494a6.826,6.826,0,0,1,1.115-1.449,19.369,19.369,0,0,1,2.7-2.246c.881-.622,1.713-1.125,2.415-1.533s1.295-.707,1.7-.906l.5-.224A.863.863,0,0,1,666.533,328.26Z" transform="translate(-637.765 -306.31)" fill="#263238"/>
      <path id="Path_3168" data-name="Path 3168" d="M651.573,344.687a1.673,1.673,0,0,1-.08-.349l-.179-.956a24.4,24.4,0,0,0-1.957-6.064l-.4-.881a.179.179,0,1,1,.05-.025c.11.2.264.5.443.866a20.362,20.362,0,0,1,1.992,6.094c.065.408.109.737.134.966A1.663,1.663,0,0,1,651.573,344.687Z" transform="translate(-634.381 -310.24)" fill="#263238"/>
      <path id="Path_3169" data-name="Path 3169" d="M642.453,322.485A11.2,11.2,0,0,0,641.108,318a14.713,14.713,0,0,0-9.958-7.434l9.231,13.757,1.19,2.455A7.06,7.06,0,0,0,642.453,322.485Z" transform="translate(-625.559 -297.428)" fill="#455a64"/>
      <rect id="Rectangle_1211" data-name="Rectangle 1211" width="21.465" height="3.804" transform="translate(8.674 52.173)" fill="#ff725e"/>
      <path id="Path_3170" data-name="Path 3170" d="M640.56,395.08l1.827,11.805h14.25l2.181-11.805Z" transform="translate(-630.283 -339.86)" fill="#ff725e"/>
      <ellipse id="Ellipse_244" data-name="Ellipse 244" cx="10.814" cy="0.075" rx="10.814" ry="0.075" transform="translate(8.499 55.907)" fill="#263238"/>
    </g>
    <g id="Device" transform="translate(71.888 58.188)">
      <path id="Path_3171" data-name="Path 3171" d="M351.136,246.13h-210.5a12.6,12.6,0,0,1-12.6-12.6V89.061a9.191,9.191,0,0,1,9.191-9.191H355.064a8.683,8.683,0,0,1,8.683,8.683V233.528a12.6,12.6,0,0,1-12.612,12.6Z" transform="translate(-118.041 -79.87)" fill="#455a64"/>
      <path id="Path_3172" data-name="Path 3172" d="M353.542,404.2H120.419a12.179,12.179,0,0,1-12.179-12.179v-1.9a.468.468,0,0,1,.468-.468H363.137a.468.468,0,0,1,.468.468v4.023A10.053,10.053,0,0,1,353.542,404.2Z" transform="translate(-108.099 -235.414)" fill="#455a64"/>
      <path id="Path_3173" data-name="Path 3173" d="M353.4,404.063h.344a8.008,8.008,0,0,0,1-.095,10.093,10.093,0,0,0,7.917-6.169,10.351,10.351,0,0,0,.747-4.078v-3.505a.715.715,0,0,0-.134-.538c-.134-.129-.344-.11-.558-.115l-56.761.04-187.316.04H108.591a.363.363,0,0,0-.154.03.343.343,0,0,0-.194.224,2.586,2.586,0,0,0,0,.388v.846c0,.568,0,1.125.05,1.683a11.6,11.6,0,0,0,.717,3.256,10.845,10.845,0,0,0,1.573,2.923,12.1,12.1,0,0,0,5.153,4.038,12.677,12.677,0,0,0,3.187.817c1.09.1,2.2.085,3.306.085h69.388l84.211.03,56.761.04h0l-56.761.04-84.211.03h-69.4c-1.105,0-2.211,0-3.331-.085a12.946,12.946,0,0,1-3.256-.832,12.358,12.358,0,0,1-5.268-4.008,11.1,11.1,0,0,1-1.608-2.987,11.861,11.861,0,0,1-.732-3.326c-.035-.573-.06-1.14-.05-1.7v-.846a2.371,2.371,0,0,1,0-.458.6.6,0,0,1,.344-.4.631.631,0,0,1,.259-.05H118.6l187.316.04,56.761.04H363a.5.5,0,0,1,.468.433,3,3,0,0,1,0,.314v3.505a10.422,10.422,0,0,1-.752,4.083,10.055,10.055,0,0,1-1.912,2.987,9.63,9.63,0,0,1-2.3,1.862,9.46,9.46,0,0,1-3.774,1.3,7.492,7.492,0,0,1-1,.08Z" transform="translate(-107.958 -235.274)" fill="#263238"/>
      <rect id="Rectangle_1212" data-name="Rectangle 1212" width="215.712" height="136.187" rx="5.27" transform="translate(19.658 10.152)" fill="#263238"/>
      <path id="Path_3174" data-name="Path 3174" d="M360.386,236.337a4.206,4.206,0,0,0,.453-.05,2.6,2.6,0,0,0,2.146-2.49q0-1.324,0-3.072V210.351c0-17.7,0-43.318-.04-74.935v-32.2a5.841,5.841,0,0,0-.03-.812,2.49,2.49,0,0,0-2.1-2.126,5.06,5.06,0,0,0-.822-.035H149.937a2.489,2.489,0,0,0-1.9.861,2.425,2.425,0,0,0-.5.936,3.531,3.531,0,0,0-.1,1.08V232.752a4.75,4.75,0,0,0,.194,1.892,2.49,2.49,0,0,0,2.171,1.529H257.982l74.93.04h0l-74.93.234H149.752a2.739,2.739,0,0,1-2.38-1.678,2.693,2.693,0,0,1-.209-1V103.183a3.785,3.785,0,0,1,.11-1.155,2.684,2.684,0,0,1,.563-1.031,2.763,2.763,0,0,1,2.1-.951H359.953a5.247,5.247,0,0,1,.851.035,2.714,2.714,0,0,1,2.27,2.305,6.025,6.025,0,0,1,.03.841v32.2c0,31.637-.03,57.259-.04,74.935v23.451a2.619,2.619,0,0,1-2.186,2.49,1.99,1.99,0,0,1-.339.035Z" transform="translate(-127.639 -89.998)" fill="#263238"/>
      <path id="Path_3175" data-name="Path 3175" d="M318.06,389.09l3.167,5.377h44.587l2.943-5.377Z" transform="translate(-213.449 -235.128)" fill="#263238"/>
      <circle id="Ellipse_245" data-name="Ellipse 245" cx="1.768" cy="1.768" r="1.768" transform="translate(126.051 3.774)" fill="#263238"/>
      <rect id="Rectangle_1213" data-name="Rectangle 1213" width="199.167" height="125.537" transform="translate(28.262 14.494)" fill="#fff"/>
      <rect id="Rectangle_1214" data-name="Rectangle 1214" width="199.167" height="12.587" transform="translate(28.262 25.991)" fill="#e0e0e0"/>
      <circle id="Ellipse_246" data-name="Ellipse 246" cx="1.917" cy="1.917" r="1.917" transform="translate(32.584 29.844)" fill="#fff"/>
      <circle id="Ellipse_247" data-name="Ellipse 247" cx="1.917" cy="1.917" r="1.917" transform="translate(38.185 29.844)" fill="#fff"/>
      <ellipse id="Ellipse_248" data-name="Ellipse 248" cx="1.922" cy="1.917" rx="1.922" ry="1.917" transform="translate(43.787 29.844)" fill="#fff"/>
      <rect id="Rectangle_1215" data-name="Rectangle 1215" width="23.392" height="23.392" rx="3.84" transform="translate(53.62 48.685)" fill="#ebebeb"/>
      <rect id="Rectangle_1216" data-name="Rectangle 1216" width="34.301" height="5.273" rx="2.636" transform="translate(48.168 77.26)" fill="#ebebeb"/>
      <rect id="Rectangle_1217" data-name="Rectangle 1217" width="23.392" height="23.392" rx="3.84" transform="translate(99.806 44.274)" fill="#ebebeb"/>
      <rect id="Rectangle_1218" data-name="Rectangle 1218" width="34.301" height="5.273" rx="2.636" transform="translate(94.354 72.848)" fill="#ebebeb"/>
      <rect id="Rectangle_1219" data-name="Rectangle 1219" width="23.392" height="23.392" rx="3.84" transform="translate(53.521 95.378)" fill="#ebebeb"/>
      <rect id="Rectangle_1220" data-name="Rectangle 1220" width="34.301" height="5.273" rx="2.636" transform="translate(48.069 123.953)" fill="#ebebeb"/>
      <rect id="Rectangle_1221" data-name="Rectangle 1221" width="23.392" height="23.392" rx="3.84" transform="translate(100.662 90.559)" fill="#ebebeb"/>
      <rect id="Rectangle_1222" data-name="Rectangle 1222" width="34.301" height="5.273" rx="2.636" transform="translate(95.21 119.134)" fill="#ebebeb"/>
      <rect id="Rectangle_1223" data-name="Rectangle 1223" width="27.006" height="27.006" rx="3.84" transform="translate(170.185 42.631)" fill="#ff725e"/>
      <path id="Path_3176" data-name="Path 3176" d="M475.823,190.5H466.9a.249.249,0,1,1,0-.5h8.713l1-5.522H466.059a.249.249,0,1,1,0-.5h10.824a.249.249,0,0,1,.244.294l-1.065,6.015a.249.249,0,0,1-.239.209Z" transform="translate(-287.634 -132.143)" fill="#fff"/>
      <path id="Path_3177" data-name="Path 3177" d="M472.522,191h0l-8.494-.03a.249.249,0,0,1-.244-.219l-1.215-9.46h-2.49a.249.249,0,1,1,0-.5h2.729a.249.249,0,0,1,.249.219l1.215,9.46,8.275.03a.249.249,0,1,1,0,.5Z" transform="translate(-284.631 -130.542)" fill="#fff"/>
      <path id="Path_3178" data-name="Path 3178" d="M469.685,204.739a1.3,1.3,0,1,1,1.3-1.3A1.3,1.3,0,0,1,469.685,204.739Zm0-2.116a.807.807,0,1,0,.807.807.807.807,0,0,0-.807-.807Z" transform="translate(-288.924 -141.256)" fill="#fff"/>
      <path id="Path_3179" data-name="Path 3179" d="M481.5,204.739a1.3,1.3,0,1,1,1.3-1.3A1.3,1.3,0,0,1,481.5,204.739Zm0-2.116a.807.807,0,1,0,.807.807A.807.807,0,0,0,481.5,202.623Z" transform="translate(-294.859 -141.256)" fill="#fff"/>
      <path id="Path_3180" data-name="Path 3180" d="M472.912,190.7a.249.249,0,0,1-.249-.234l-.363-5.82a.249.249,0,0,1,.234-.264.244.244,0,0,1,.264.234l.363,5.821a.249.249,0,0,1-.234.264Z" transform="translate(-290.892 -132.343)" fill="#fff"/>
      <path id="Path_3181" data-name="Path 3181" d="M479.844,190.7h0a.249.249,0,0,1-.234-.264l.324-5.82a.249.249,0,1,1,.5.03l-.324,5.82a.249.249,0,0,1-.264.234Z" transform="translate(-294.562 -132.344)" fill="#fff"/>
      <path id="Path_3182" data-name="Path 3182" d="M466.749,190.617a.249.249,0,1,1,0-.5l9.958-.1a.259.259,0,0,1,.249.249.249.249,0,0,1-.249.249Z" transform="translate(-287.98 -135.176)" fill="#fff"/>
      <rect id="Rectangle_1224" data-name="Rectangle 1224" width="24.462" height="5.586" rx="2.793" transform="translate(161.516 89.339)" fill="#e0e0e0"/>
      <rect id="Rectangle_1225" data-name="Rectangle 1225" width="24.462" height="5.586" rx="2.793" transform="translate(161.516 78.724)" fill="#e0e0e0"/>
      <rect id="Rectangle_1226" data-name="Rectangle 1226" width="45.369" height="15.301" rx="7.65" transform="translate(158.892 105.516)" fill="#ff725e"/>
      <path id="Path_3183" data-name="Path 3183" d="M467.777,304.45c0,.767-.578,1.245-1.494,1.245H465.7v.9h-.956V303.21h1.544C467.2,303.2,467.777,303.678,467.777,304.45Zm-.966,0c0-.314-.2-.5-.592-.5h-.533v1h.533c.4-.005.6-.189.6-.5Z" transform="translate(-287.097 -192.008)" fill="#fff"/>
      <path id="Path_3184" data-name="Path 3184" d="M473.289,305.914H471.86l-.264.657h-1l1.494-3.381h.941l1.494,3.381h-1Zm-.279-.707-.433-1.08-.433,1.08Z" transform="translate(-290.039 -191.998)" fill="#fff"/>
      <path id="Path_3185" data-name="Path 3185" d="M480,305.371V306.6h-.956v-1.225l-1.29-2.151h1l.8,1.339.8-1.339h.926Z" transform="translate(-293.629 -192.013)" fill="#fff"/>
      <path id="Path_3186" data-name="Path 3186" d="M384.7,245.849c-.07,0-.129-25.294-.129-56.492s.06-56.5.129-56.5.129,25.289.129,56.5S384.784,245.849,384.7,245.849Z" transform="translate(-246.844 -106.476)" fill="#ebebeb"/>
      <circle id="Ellipse_249" data-name="Ellipse 249" cx="5.268" cy="5.268" r="5.268" transform="translate(70.4 44.508)" fill="#ff725e"/>
      <path id="Path_3187" data-name="Path 3187" d="M256.657,179.842a.5.5,0,0,1-.309-.1L254.5,178.3a.5.5,0,0,1,.612-.782l1.494,1.16,2.49-2.878a.5.5,0,0,1,.757.647l-2.778,3.241A.5.5,0,0,1,256.657,179.842Z" transform="translate(-181.452 -127.951)" fill="#fff"/>
      <circle id="Ellipse_250" data-name="Ellipse 250" cx="5.268" cy="5.268" r="5.268" transform="translate(70.4 91.276)" fill="#455a64"/>
      <path id="Path_3188" data-name="Path 3188" d="M256.593,273.727a.5.5,0,0,1-.309-.1l-1.857-1.454a.5.5,0,1,1,.612-.782l1.494,1.16,2.49-2.883a.5.5,0,1,1,.757.647L257,273.553A.5.5,0,0,1,256.593,273.727Z" transform="translate(-181.389 -175.077)" fill="#fff"/>
      <rect id="Rectangle_1227" data-name="Rectangle 1227" width="6.259" height="5.298" rx="2.649" transform="translate(196.997 78.724)" fill="#e0e0e0"/>
      <rect id="Rectangle_1228" data-name="Rectangle 1228" width="6.259" height="5.298" rx="2.649" transform="translate(197.281 89.862)" fill="#e0e0e0"/>
      <path id="Path_3189" data-name="Path 3189" d="M561.167,312.483s-.045-.309-.149-.856a10.719,10.719,0,0,0-.687-2.255,8.587,8.587,0,0,0-1.947-2.858,5.437,5.437,0,0,0-7.643-.025,8.556,8.556,0,0,0-1.962,2.848,10.7,10.7,0,0,0-.692,2.251c-.109.548-.13.856-.154.856a.917.917,0,0,1,0-.224,6.315,6.315,0,0,1,.07-.642,9.766,9.766,0,0,1,.637-2.3,8.5,8.5,0,0,1,1.967-2.933,5.591,5.591,0,0,1,7.912.025,8.532,8.532,0,0,1,1.952,2.943,9.779,9.779,0,0,1,.628,2.3,6.3,6.3,0,0,1,.07.642.9.9,0,0,1,0,.229Z" transform="translate(-328.864 -192.767)" fill="#455a64"/>
      <path id="Path_3190" data-name="Path 3190" d="M565.762,312.488s-.045-.309-.149-.856a10.72,10.72,0,0,0-.682-2.255,8.585,8.585,0,0,0-1.947-2.858,5.437,5.437,0,0,0-7.643-.025,8.554,8.554,0,0,0-1.962,2.848,10.7,10.7,0,0,0-.692,2.25c-.109.548-.13.856-.154.856a.917.917,0,0,1,0-.224,6.3,6.3,0,0,1,.07-.642,9.759,9.759,0,0,1,.637-2.3,8.5,8.5,0,0,1,1.962-2.928,5.591,5.591,0,0,1,7.912.025,8.534,8.534,0,0,1,1.952,2.943,9.779,9.779,0,0,1,.627,2.3,6.263,6.263,0,0,1,.07.642A.905.905,0,0,1,565.762,312.488Z" transform="translate(-331.174 -192.772)" fill="#455a64"/>
      <path id="Path_3191" data-name="Path 3191" d="M532.189,318.469l25.811-.2.563,35.192H529.6Z" transform="translate(-319.663 -199.57)" fill="#ebebeb"/>
      <path id="Path_3192" data-name="Path 3192" d="M586.64,318.27h3.241l2.793,35.192H587.2Z" transform="translate(-348.302 -199.57)" fill="#e0e0e0"/>
      <rect id="Rectangle_1229" data-name="Rectangle 1229" width="16.899" height="2.833" transform="translate(215.967 132.557)" fill="#fff"/>
      <path id="Path_3193" data-name="Path 3193" d="M547.932,326.329a15.93,15.93,0,0,0-.767-3.206,9.033,9.033,0,0,0-1.763-2.948,4.481,4.481,0,0,0-6.881-.05,8.987,8.987,0,0,0-1.773,2.938,15.9,15.9,0,0,0-.777,3.207.905.905,0,0,1,0-.234,3.084,3.084,0,0,1,.06-.667,11.159,11.159,0,0,1,.573-2.375,8.964,8.964,0,0,1,1.777-3.037,4.631,4.631,0,0,1,7.175.025,9.016,9.016,0,0,1,1.768,3.047,11.187,11.187,0,0,1,.563,2.38c.035.289.055.5.06.667A.909.909,0,0,1,547.932,326.329Z" transform="translate(-322.858 -199.567)" fill="#263238"/>
      <path id="Path_3194" data-name="Path 3194" d="M552.087,326.354a15.921,15.921,0,0,0-.767-3.207,9.032,9.032,0,0,0-1.763-2.948,4.481,4.481,0,0,0-6.886-.025,8.965,8.965,0,0,0-1.772,2.938,15.9,15.9,0,0,0-.777,3.206.911.911,0,0,1,0-.234,3.077,3.077,0,0,1,.06-.667,11.152,11.152,0,0,1,.573-2.375,8.962,8.962,0,0,1,1.778-3.037,4.631,4.631,0,0,1,7.175.025,9.02,9.02,0,0,1,1.768,3.047,11.188,11.188,0,0,1,.563,2.38c.035.289.055.5.06.667A.912.912,0,0,1,552.087,326.354Z" transform="translate(-324.942 -199.592)" fill="#263238"/>
      <path id="Path_3195" data-name="Path 3195" d="M519.66,331.5,543,331.34l.508,28.958H517.32Z" transform="translate(-313.497 -206.132)" fill="#ff725e"/>
      <path id="Path_3196" data-name="Path 3196" d="M568.9,331.34h2.928l2.524,28.958h-4.944Z" transform="translate(-339.395 -206.132)" fill="#ff725e"/>
      <g id="Group_117" data-name="Group 117" transform="translate(229.505 125.208)" opacity="0.3">
        <path id="Path_3197" data-name="Path 3197" d="M568.9,331.34h2.928l2.524,28.958h-4.944Z" transform="translate(-568.9 -331.34)"/>
      </g>
      <rect id="Rectangle_1230" data-name="Rectangle 1230" width="15.281" height="2.928" transform="translate(210.246 135.042)" fill="#fff"/>
      <path id="Path_3198" data-name="Path 3198" d="M146.66,99.89h17.979v10.272a7.235,7.235,0,0,1-7.235,7.21h-3.485a7.235,7.235,0,0,1-7.235-7.235V99.89Z" transform="translate(-127.39 -89.922)" fill="#ff725e"/>
      <path id="Path_3199" data-name="Path 3199" d="M182.77,99.89h17.979v10.272a7.235,7.235,0,0,1-7.235,7.21h-3.485a7.235,7.235,0,0,1-7.235-7.235V99.89Z" transform="translate(-145.521 -89.922)" fill="#ff725e"/>
      <path id="Path_3200" data-name="Path 3200" d="M218.88,99.89h17.984v10.272a7.235,7.235,0,0,1-7.24,7.21h-3.485a7.235,7.235,0,0,1-7.235-7.235V99.89Z" transform="translate(-163.651 -89.922)" fill="#ff725e"/>
      <path id="Path_3201" data-name="Path 3201" d="M255,99.89h18.069v10.272a7.234,7.234,0,0,1-7.24,7.21h-3.595A7.235,7.235,0,0,1,255,110.157Z" transform="translate(-181.787 -89.922)" fill="#ff725e"/>
      <path id="Path_3202" data-name="Path 3202" d="M291.28,99.89h17.979v10.272a7.235,7.235,0,0,1-7.235,7.21h-3.485a7.235,7.235,0,0,1-7.235-7.235V99.89Z" transform="translate(-200.003 -89.922)" fill="#ff725e"/>
      <path id="Path_3203" data-name="Path 3203" d="M327.39,99.89h17.979v10.272a7.234,7.234,0,0,1-7.22,7.21h-3.485a7.235,7.235,0,0,1-7.235-7.235V99.89Z" transform="translate(-218.134 -89.922)" fill="#ff725e"/>
      <path id="Path_3204" data-name="Path 3204" d="M363.5,99.89h17.979v10.272a7.235,7.235,0,0,1-7.235,7.21h-3.485a7.235,7.235,0,0,1-7.235-7.235V99.89Z" transform="translate(-236.264 -89.922)" fill="#ff725e"/>
      <path id="Path_3205" data-name="Path 3205" d="M399.61,99.89h18.278v10.272a7.234,7.234,0,0,1-7.235,7.21h-3.809a7.235,7.235,0,0,1-7.235-7.235V99.89Z" transform="translate(-254.395 -89.922)" fill="#ff725e"/>
      <path id="Path_3206" data-name="Path 3206" d="M435.9,99.89h17.974v10.272a7.235,7.235,0,0,1-7.235,7.21h-3.485a7.235,7.235,0,0,1-7.235-7.235V99.89Z" transform="translate(-272.616 -89.922)" fill="#ff725e"/>
      <path id="Path_3207" data-name="Path 3207" d="M472,99.89h17.979v10.272a7.235,7.235,0,0,1-7.23,7.21h-3.485A7.235,7.235,0,0,1,472,110.157Z" transform="translate(-290.742 -89.922)" fill="#ff725e"/>
      <path id="Path_3208" data-name="Path 3208" d="M508.12,99.89H526.1v10.272a7.235,7.235,0,0,1-7.235,7.21h-3.485a7.235,7.235,0,0,1-7.234-7.235V99.89Z" transform="translate(-308.878 -89.922)" fill="#ff725e"/>
      <path id="Path_3209" data-name="Path 3209" d="M544.23,99.89h17.979v10.272a7.235,7.235,0,0,1-7.235,7.21h-3.485a7.235,7.235,0,0,1-7.234-7.235V99.89Z" transform="translate(-327.008 -89.922)" fill="#ff725e"/>
      <g id="Group_118" data-name="Group 118" transform="translate(37.249 9.968)" opacity="0.3">
        <path id="Path_3210" data-name="Path 3210" d="M182.77,99.89h17.979v10.272a7.235,7.235,0,0,1-7.235,7.21h-3.485a7.235,7.235,0,0,1-7.235-7.235V99.89Z" transform="translate(-182.77 -99.89)" fill="#fff"/>
      </g>
      <g id="Group_119" data-name="Group 119" transform="translate(73.213 9.968)" opacity="0.3">
        <path id="Path_3211" data-name="Path 3211" d="M255,99.89h18.069v10.272a7.234,7.234,0,0,1-7.24,7.21h-3.595A7.235,7.235,0,0,1,255,110.157Z" transform="translate(-255 -99.89)" fill="#fff"/>
      </g>
      <g id="Group_120" data-name="Group 120" transform="translate(109.256 9.968)" opacity="0.3">
        <path id="Path_3212" data-name="Path 3212" d="M327.39,99.89h17.979v10.272a7.234,7.234,0,0,1-7.22,7.21h-3.485a7.235,7.235,0,0,1-7.235-7.235V99.89Z" transform="translate(-327.39 -99.89)" fill="#fff"/>
      </g>
      <g id="Group_121" data-name="Group 121" transform="translate(145.215 9.968)" opacity="0.3">
        <path id="Path_3213" data-name="Path 3213" d="M399.61,99.89h18.278v10.272a7.234,7.234,0,0,1-7.235,7.21h-3.809a7.235,7.235,0,0,1-7.235-7.235V99.89Z" transform="translate(-399.61 -99.89)" fill="#fff"/>
      </g>
      <g id="Group_122" data-name="Group 122" transform="translate(181.258 9.968)" opacity="0.3">
        <path id="Path_3214" data-name="Path 3214" d="M472,99.89h17.979v10.272a7.235,7.235,0,0,1-7.23,7.21h-3.485A7.235,7.235,0,0,1,472,110.157Z" transform="translate(-472 -99.89)" fill="#fff"/>
      </g>
      <g id="Group_123" data-name="Group 123" transform="translate(217.222 9.968)" opacity="0.3">
        <path id="Path_3215" data-name="Path 3215" d="M544.23,99.89h17.979v10.272a7.235,7.235,0,0,1-7.235,7.21h-3.485a7.235,7.235,0,0,1-7.234-7.235V99.89Z" transform="translate(-544.23 -99.89)" fill="#fff"/>
      </g>
      <ellipse id="Ellipse_251" data-name="Ellipse 251" cx="0.129" cy="5.816" rx="0.129" ry="5.816" transform="translate(37.12 9.968)" fill="#263238"/>
      <ellipse id="Ellipse_252" data-name="Ellipse 252" cx="0.129" cy="5.816" rx="0.129" ry="5.816" transform="translate(54.97 9.968)" fill="#263238"/>
      <ellipse id="Ellipse_253" data-name="Ellipse 253" cx="0.129" cy="5.816" rx="0.129" ry="5.816" transform="translate(73.079 9.968)" fill="#263238"/>
      <ellipse id="Ellipse_254" data-name="Ellipse 254" cx="0.129" cy="5.816" rx="0.129" ry="5.816" transform="translate(91.147 9.834)" fill="#263238"/>
      <ellipse id="Ellipse_255" data-name="Ellipse 255" cx="0.129" cy="5.686" rx="0.129" ry="5.686" transform="translate(109.127 9.963)" fill="#263238"/>
      <ellipse id="Ellipse_256" data-name="Ellipse 256" cx="0.129" cy="5.686" rx="0.129" ry="5.686" transform="translate(127.27 9.764)" fill="#263238"/>
      <ellipse id="Ellipse_257" data-name="Ellipse 257" cx="0.129" cy="5.482" rx="0.129" ry="5.482" transform="translate(145.085 9.968)" fill="#263238"/>
      <ellipse id="Ellipse_258" data-name="Ellipse 258" cx="0.129" cy="5.482" rx="0.129" ry="5.482" transform="translate(163.259 9.968)" fill="#263238"/>
      <ellipse id="Ellipse_259" data-name="Ellipse 259" cx="0.129" cy="5.482" rx="0.129" ry="5.482" transform="translate(181.134 9.968)" fill="#263238"/>
      <ellipse id="Ellipse_260" data-name="Ellipse 260" cx="0.129" cy="5.482" rx="0.129" ry="5.482" transform="translate(199.188 9.968)" fill="#263238"/>
      <ellipse id="Ellipse_261" data-name="Ellipse 261" cx="0.129" cy="5.482" rx="0.129" ry="5.482" transform="translate(217.247 9.968)" fill="#263238"/>
      <path id="Path_3216" data-name="Path 3216" d="M194.8,316.72s-6.373.368-6.886,1.494c0,0-.08,4.69,4.426,9.415l-.9,1.907v3.127c2.1-4.063,4.436-10.287,4.436-10.287S195.981,318,194.8,316.72Z" transform="translate(-148.101 -198.791)" fill="#455a64"/>
      <g id="Group_124" data-name="Group 124" transform="translate(45.162 118.342)" opacity="0.3">
        <path id="Path_3217" data-name="Path 3217" d="M199.965,317.55s-2.226,5.776-.861,9.958C199.1,327.483,202.161,322.38,199.965,317.55Z" transform="translate(-198.661 -317.55)"/>
      </g>
      <path id="Path_3218" data-name="Path 3218" d="M198.022,326.646S195.065,321,193.835,321c0,0-4.307,1.852-6.762,7.907h-2.116a12.239,12.239,0,0,0-6.786-7.533s-3.231,5.821-3.341,5.766a11.521,11.521,0,0,0,7.274,3.047c4.566.239,11.2-.189,11.2-.189S197.32,328.254,198.022,326.646Z" transform="translate(-141.534 -200.94)" fill="#455a64"/>
      <g id="Group_125" data-name="Group 125" transform="translate(33.704 126.2)" opacity="0.3">
        <path id="Path_3219" data-name="Path 3219" d="M184.289,335.841s-4.78-2.758-8.639-2.49C175.635,333.341,180.106,337.111,184.289,335.841Z" transform="translate(-175.65 -333.333)"/>
      </g>
      <g id="Group_126" data-name="Group 126" transform="translate(46.605 125.666)" opacity="0.3">
        <path id="Path_3220" data-name="Path 3220" d="M210.97,332.26s-6.179.349-9.41,3.3C201.56,335.561,207.47,336.248,210.97,332.26Z" transform="translate(-201.56 -332.26)"/>
      </g>
      <path id="Path_3221" data-name="Path 3221" d="M198.557,338.573l-1.688,25.378-39.17-.368-.309-25.393Z" transform="translate(-132.777 -209.571)" fill="#ff725e"/>
      <g id="Group_127" data-name="Group 127" transform="translate(58.107 128.932)" opacity="0.3">
        <path id="Path_3222" data-name="Path 3222" d="M224.9,338.82l-.239,25.393,5.985.055,1.688-25.378Z" transform="translate(-224.66 -338.82)"/>
      </g>
      <path id="Path_3223" data-name="Path 3223" d="M231.539,338.89,230.3,364.268l-1.364-.01.239-25.388Z" transform="translate(-168.702 -209.913)" fill="#455a64"/>
      <rect id="Rectangle_1231" data-name="Rectangle 1231" width="25.388" height="3.266" transform="translate(39.933 154.163) rotate(-89.46)" fill="#455a64"/>
      <rect id="Rectangle_1232" data-name="Rectangle 1232" width="40.151" height="2.465" transform="translate(24.747 139.801)" fill="#455a64"/>
    </g>
    <g id="Character" transform="translate(123.741 90.164)">
      <path id="Path_3224" data-name="Path 3224" d="M318.421,163.054a35.652,35.652,0,0,1-.339-6.139,12.447,12.447,0,0,1,1.678-5.84c.164-.264,1.459-1.992,1.758-1.907.214.065-.707,1.743-.637,1.952a10.56,10.56,0,0,1-.055,6.269,27.8,27.8,0,0,1-2.4,5.686" transform="translate(-265.305 -146.639)" fill="#263238"/>
      <path id="Path_3225" data-name="Path 3225" d="M314.48,171.547l3.485-18.019c.856-5.079,4.526-8.813,9.575-7.812l.463.12a9.206,9.206,0,0,1,6.767,10.491c-.767,4.4-1.668,9.246-2.3,11.546-1.3,4.76-6.284,4.292-6.284,4.292s-1.21,5.4-1.494,6.816l-7.05-2.46-1.7-.538Z" transform="translate(-263.505 -144.826)" fill="#ffbf9d"/>
      <path id="Path_3226" data-name="Path 3226" d="M332.216,195.485A11.949,11.949,0,0,1,326.48,192s.568,3.983,5.477,4.785Z" transform="translate(-269.53 -168.147)" fill="#ff9a6c"/>
      <path id="Path_3227" data-name="Path 3227" d="M349.175,175.269a.707.707,0,0,1-.836.5.672.672,0,0,1-.543-.8.707.707,0,0,1,.836-.5.677.677,0,0,1,.543.8Z" transform="translate(-280.226 -159.337)" fill="#263238"/>
      <path id="Path_3228" data-name="Path 3228" d="M349.383,169.755c-.11.065-.528-.448-1.26-.637s-1.369.04-1.424-.07.1-.189.378-.3a1.937,1.937,0,0,1,1.17-.055,1.862,1.862,0,0,1,1,.617C349.4,169.546,349.437,169.725,349.383,169.755Z" transform="translate(-279.676 -156.412)" fill="#263238"/>
      <path id="Path_3229" data-name="Path 3229" d="M335.965,172.309a.707.707,0,0,1-.836.5.672.672,0,0,1-.543-.8.707.707,0,0,1,.836-.5.677.677,0,0,1,.543.8Z" transform="translate(-273.593 -157.851)" fill="#263238"/>
      <path id="Path_3230" data-name="Path 3230" d="M335.093,166.685c-.11.065-.528-.448-1.26-.637s-1.369.04-1.424-.07.1-.189.378-.3a1.937,1.937,0,0,1,1.17-.055,1.862,1.862,0,0,1,1,.617C335.108,166.471,335.142,166.655,335.093,166.685Z" transform="translate(-272.501 -154.871)" fill="#263238"/>
      <path id="Path_3231" data-name="Path 3231" d="M339.91,173.939a5.026,5.026,0,0,1,1.25.095c.194.03.378.04.443-.08a1,1,0,0,0,0-.588l-.184-1.573a25.45,25.45,0,0,1-.279-4.063,25.221,25.221,0,0,1,.607,4.028l.2,1.583a1.125,1.125,0,0,1-.095.762.5.5,0,0,1-.378.194,1.318,1.318,0,0,1-.329-.04A4.943,4.943,0,0,1,339.91,173.939Z" transform="translate(-276.273 -155.961)" fill="#263238"/>
      <path id="Path_3232" data-name="Path 3232" d="M336.641,160.9c-.149.164-.812-.219-1.673-.463s-1.623-.294-1.658-.5c0-.1.174-.234.5-.3a3.017,3.017,0,0,1,2.539.742C336.611,160.607,336.7,160.821,336.641,160.9Z" transform="translate(-272.959 -151.875)" fill="#263238"/>
      <path id="Path_3233" data-name="Path 3233" d="M350.576,164.094c-.194.129-.752-.189-1.494-.373s-1.359-.209-1.459-.418c-.04-.1.095-.244.4-.339a2.39,2.39,0,0,1,1.265,0,2.355,2.355,0,0,1,1.1.622C350.621,163.835,350.665,164.03,350.576,164.094Z" transform="translate(-280.142 -153.525)" fill="#263238"/>
      <path id="Path_3234" data-name="Path 3234" d="M316.53,168.356c-.075-.055-3.037-1.822-3.774,1.494s2.724,3.361,2.748,3.266S316.53,168.356,316.53,168.356Z" transform="translate(-262.587 -156.014)" fill="#ffbf9d"/>
      <path id="Path_3235" data-name="Path 3235" d="M315.632,172.663a1.4,1.4,0,0,1-.174.05.588.588,0,0,1-.433-.09,1.459,1.459,0,0,1-.373-1.424,1.947,1.947,0,0,1,.344-.787.682.682,0,0,1,.533-.344.3.3,0,0,1,.3.234v.174c0,.01.085-.04.09-.179a.374.374,0,0,0-.085-.234.443.443,0,0,0-.3-.154.826.826,0,0,0-.717.378,1.992,1.992,0,0,0-.4.876,1.529,1.529,0,0,0,.5,1.613.632.632,0,0,0,.543.03C315.607,172.743,315.642,172.673,315.632,172.663Z" transform="translate(-263.442 -157.055)" fill="#ff9a6c"/>
      <path id="Path_3236" data-name="Path 3236" d="M335.75,149.653c.6-.179-.632-2.255-1.817-3.137-1.792-1.329-4.705-2.539-6.647-2.415a8.135,8.135,0,0,0-5.945,2.619,13.289,13.289,0,0,0-2.888,6.318,4.038,4.038,0,0,0,.03,2.116c.3.831,1.09,1.494.836,2.49a1.414,1.414,0,0,0,.124,1.08c.468.772,1.334.329,1.807-.2a14.606,14.606,0,0,0,2.27-7.319c-.045-.588-.189-1.16-.2-1.748a2.031,2.031,0,0,1,.587-1.6,2.123,2.123,0,0,1,.329-.214,3.525,3.525,0,0,1,3.56.085c1.718,1.061,4.685,2.729,5.651,2.275a5.209,5.209,0,0,0,1.8-1.18Z" transform="translate(-265.436 -144.092)" fill="#263238"/>
      <path id="Path_3237" data-name="Path 3237" d="M334.782,180.119c.115,0-.045.777.5,1.454s1.364.762,1.344.871-.209.11-.553.045a1.932,1.932,0,0,1-1.135-.682,1.683,1.683,0,0,1-.363-1.21C334.622,180.273,334.747,180.1,334.782,180.119Z" transform="translate(-273.589 -162.181)" fill="#263238"/>
      <path id="Path_3238" data-name="Path 3238" d="M339.038,246.932l12.477,5.089-1.534,5.85-12.821-2.634a7.673,7.673,0,0,1-6.189-4.7l-4.411-10.72,7.07-6.722Z" transform="translate(-269.57 -188.783)" fill="#ffbf9d"/>
      <path id="Path_3239" data-name="Path 3239" d="M373.077,277.969c1.285.5,2.7,1.07,2.7,1.07l1.285.458a1.532,1.532,0,0,1-.189.2,1,1,0,0,0-.319.4.817.817,0,0,0,.383.841,1.936,1.936,0,0,0,3.092-1.26,1.439,1.439,0,0,0,.354-.433c.607-1.13-.269-2.773-.269-2.773l.473.1s1.23.841.866,3.3a1.529,1.529,0,0,0,.219,1.061.776.776,0,0,0,.543.383c.6.075.8-.334,1.051-1.862a4.708,4.708,0,0,0-.742-3.839,10.387,10.387,0,0,0-1.056-1s4.307.627,4.581.657c.792.085,1.494-.2,1.6-.727.065-.334-.1-.812-1-.936-.8-.109-8.828-2.26-8.828-2.26l-3.6-.742-3.072-.129L370,275.12l.881.951A4.263,4.263,0,0,0,373.077,277.969Z" transform="translate(-291.381 -207.551)" fill="#ffbf9d"/>
      <path id="Path_3240" data-name="Path 3240" d="M378.789,272.21a1.14,1.14,0,0,0,.458,1.245c.369.3.827.463,1.215.737,1.165.812,1.559,2.445,2.758,3.2.169.1.408.184.543.045s.07-.344,0-.5l-1.723-4.367" transform="translate(-295.773 -208.42)" fill="#ffbf9d"/>
      <path id="Path_3241" data-name="Path 3241" d="M381.983,272.554a1.9,1.9,0,0,1,.234.453c.134.3.324.732.548,1.275l.782,1.9.224.553a.931.931,0,0,1,.1.7.393.393,0,0,1-.383.219.817.817,0,0,1-.364-.12,3.1,3.1,0,0,1-.543-.433,18.151,18.151,0,0,1-1.494-2.046,3.571,3.571,0,0,0-.742-.757c-.269-.194-.558-.334-.812-.5a1.668,1.668,0,0,1-.891-1.08.582.582,0,0,1,.085-.5,1.37,1.37,0,0,0,0,.5,1.613,1.613,0,0,0,.881.941c.249.139.548.269.846.468a3.679,3.679,0,0,1,.846.772,21.126,21.126,0,0,0,1.494,1.992,2.909,2.909,0,0,0,.5.393c.164.1.349.115.378,0a1,1,0,0,0-.1-.5l-.214-.553-.727-1.922c-.2-.548-.363-1-.468-1.3A1.885,1.885,0,0,1,381.983,272.554Z" transform="translate(-295.716 -208.425)" fill="#ff9a6c"/>
      <path id="Path_3242" data-name="Path 3242" d="M390.28,282.339a1.946,1.946,0,0,1,.792.4,1.493,1.493,0,0,1,.448.826,3.818,3.818,0,0,1,0,1.185,6.086,6.086,0,0,0-.05,1.23,1.991,1.991,0,0,0,.334.966.772.772,0,0,0,.607.329.448.448,0,0,0,.249-.05h-.244a.732.732,0,0,1-.5-.334,1.962,1.962,0,0,1-.274-.911,6.722,6.722,0,0,1,.065-1.2,3.716,3.716,0,0,0-.035-1.24,1.579,1.579,0,0,0-.5-.881,1.4,1.4,0,0,0-.622-.3A.5.5,0,0,0,390.28,282.339Z" transform="translate(-301.563 -213.5)" fill="#ff9a6c"/>
      <path id="Path_3243" data-name="Path 3243" d="M396.945,279.337a4.89,4.89,0,0,0-.856-.129l-2.066-.264-2.061-.294a4.868,4.868,0,0,0-.861-.1,3.894,3.894,0,0,0,.842.219c.523.109,1.255.234,2.061.344s1.544.179,2.076.214A3.881,3.881,0,0,0,396.945,279.337Z" transform="translate(-301.975 -211.603)" fill="#ff9a6c"/>
      <path id="Path_3244" data-name="Path 3244" d="M386,284a1.053,1.053,0,0,0,.065.264.8.8,0,0,1-.055.667.428.428,0,0,1-.388.174,2.3,2.3,0,0,1-.553-.12,1,1,0,0,0-.687,0,.816.816,0,0,0-.428.607.941.941,0,0,0,.2.717,1.185,1.185,0,0,0,.558.4,3.81,3.81,0,0,0,1.105.134,2.225,2.225,0,0,0,.737-.12.579.579,0,0,0,.234-.144c0-.005-.09.04-.254.085a2.639,2.639,0,0,1-.717.065,4.085,4.085,0,0,1-1.056-.164.936.936,0,0,1-.642-.936.657.657,0,0,1,.334-.5.826.826,0,0,1,.573,0,2.29,2.29,0,0,0,.593.1.553.553,0,0,0,.5-.249.842.842,0,0,0,0-.757A.708.708,0,0,0,386,284Z" transform="translate(-298.382 -214.339)" fill="#ff9a6c"/>
      <path id="Path_3245" data-name="Path 3245" d="M383.841,288.57a.362.362,0,0,0-.249,0,.747.747,0,0,0-.5.438,1,1,0,0,0,.169,1,1.658,1.658,0,0,0,1.08.578,1.992,1.992,0,0,0,1.2-.209,1.877,1.877,0,0,0,.717-.682,1.784,1.784,0,0,0,.234-.622.5.5,0,0,0,0-.244,3.1,3.1,0,0,1-.344.8,1.847,1.847,0,0,1-.687.607,1.882,1.882,0,0,1-1.1.179,1.538,1.538,0,0,1-1-.5.9.9,0,0,1-.179-.841.707.707,0,0,1,.413-.418A1.494,1.494,0,0,1,383.841,288.57Z" transform="translate(-297.923 -216.624)" fill="#ff9a6c"/>
      <path id="Path_3246" data-name="Path 3246" d="M379.017,279.9a.7.7,0,0,0,.05-.413,1.648,1.648,0,0,0-.428-1l-.06.139a4.814,4.814,0,0,0,.588,0,3.684,3.684,0,0,0,1.917-.642,9.336,9.336,0,0,1-1.932.468h-.762l.134.139a1.728,1.728,0,0,1,.443.871A2.871,2.871,0,0,0,379.017,279.9Z" transform="translate(-295.594 -211.322)" fill="#ff9a6c"/>
      <path id="Path_3247" data-name="Path 3247" d="M393.634,283.991c0-.045-.344.08-.558.438s-.169.707-.124.7.085-.3.269-.607S393.659,284.051,393.634,283.991Z" transform="translate(-302.887 -214.331)" fill="#ff9a6c"/>
      <path id="Path_3248" data-name="Path 3248" d="M333.664,210.735s-.667-4.212-.607-3.928c.3,1.439,2.41,3.575,2.928,8.255.2,1.827,3.45,13.727,3.45,13.727l-9.007,4.187-.568-10.093Z" transform="translate(-271.227 -175.574)" fill="#ff725e"/>
      <path id="Path_3249" data-name="Path 3249" d="M453.764,334.572a15.539,15.539,0,0,0-1-3.062,8.8,8.8,0,0,0-1.927-2.733,4.362,4.362,0,0,0-6.7.5,8.76,8.76,0,0,0-1.494,2.987,15.5,15.5,0,0,0-.5,3.172.89.89,0,0,1,0-.229v-.652a10.87,10.87,0,0,1,.383-2.35,8.737,8.737,0,0,1,1.494-3.082,4.511,4.511,0,0,1,6.971-.5,8.783,8.783,0,0,1,1.937,2.833,10.908,10.908,0,0,1,.722,2.27c.055.279.09.5.1.642A.878.878,0,0,1,453.764,334.572Z" transform="translate(-327.605 -236.033)" fill="#263238"/>
      <path id="Path_3250" data-name="Path 3250" d="M457.794,334.235a15.538,15.538,0,0,0-1-3.062,8.8,8.8,0,0,0-1.927-2.733,4.362,4.362,0,0,0-6.7.5,8.76,8.76,0,0,0-1.494,2.987,15.489,15.489,0,0,0-.5,3.172.877.877,0,0,1,0-.229v-.652a10.868,10.868,0,0,1,.383-2.35,8.743,8.743,0,0,1,1.494-3.082,4.516,4.516,0,0,1,6.971-.5,8.783,8.783,0,0,1,1.937,2.833,10.907,10.907,0,0,1,.722,2.271c.055.279.09.5.1.642a.9.9,0,0,1,0,.2Z" transform="translate(-329.628 -235.865)" fill="#263238"/>
      <path id="Path_3251" data-name="Path 3251" d="M428.184,340.137l22.665-1.857,2.6,28.1-25.443,1.912Z" transform="translate(-320.508 -241.593)" fill="#ff725e"/>
      <path id="Path_3252" data-name="Path 3252" d="M473.88,338.064l2.848-.214,4.556,27.952-4.8.359Z" transform="translate(-343.539 -241.377)" fill="#ff725e"/>
      <g id="Group_128" data-name="Group 128" transform="translate(130.341 96.473)" opacity="0.3">
        <path id="Path_3253" data-name="Path 3253" d="M473.88,338.064l2.848-.214,4.556,27.952-4.8.359Z" transform="translate(-473.88 -337.85)"/>
      </g>
      <rect id="Rectangle_1233" data-name="Rectangle 1233" width="14.887" height="2.853" transform="translate(112.357 107.635) rotate(-4.29)" fill="#fff"/>
      <path id="Path_3254" data-name="Path 3254" d="M397.232,301.887a13.305,13.305,0,0,0-.642-2.679,7.537,7.537,0,0,0-1.494-2.46,3.739,3.739,0,0,0-5.751,0,7.5,7.5,0,0,0-1.494,2.45,13.266,13.266,0,0,0-.647,2.674.755.755,0,0,1,0-.194,2.591,2.591,0,0,1,.05-.558,9.31,9.31,0,0,1,.5-1.992,7.469,7.469,0,0,1,1.494-2.534,3.864,3.864,0,0,1,5.975,0,7.524,7.524,0,0,1,1.494,2.544,9.343,9.343,0,0,1,.468,1.992c.03.239.045.428.05.558A.758.758,0,0,1,397.232,301.887Z" transform="translate(-300.016 -219.953)" fill="#263238"/>
      <path id="Path_3255" data-name="Path 3255" d="M400.7,301.887a13.3,13.3,0,0,0-.642-2.679,7.538,7.538,0,0,0-1.494-2.46,3.739,3.739,0,0,0-5.751,0,7.5,7.5,0,0,0-1.494,2.45,13.262,13.262,0,0,0-.647,2.674.754.754,0,0,1,0-.194,2.591,2.591,0,0,1,.05-.558,9.313,9.313,0,0,1,.5-1.992,7.47,7.47,0,0,1,1.494-2.534,3.864,3.864,0,0,1,5.975,0,7.522,7.522,0,0,1,1.494,2.544,9.336,9.336,0,0,1,.468,1.992c.03.239.045.428.05.558a.758.758,0,0,1,0,.2Z" transform="translate(-301.758 -219.953)" fill="#263238"/>
      <path id="Path_3256" data-name="Path 3256" d="M373.677,306.184l19.473-.134.428,24.163H371.72Z" transform="translate(-292.245 -225.411)" fill="#455a64"/>
      <path id="Path_3257" data-name="Path 3257" d="M414.76,306.05h2.45l2.1,24.163h-4.123Z" transform="translate(-313.855 -225.411)" fill="#455a64"/>
      <g id="Group_129" data-name="Group 129" transform="translate(100.905 80.639)" opacity="0.3">
        <path id="Path_3258" data-name="Path 3258" d="M414.76,306.05h2.45l2.1,24.163h-4.123Z" transform="translate(-414.76 -306.05)"/>
      </g>
      <rect id="Rectangle_1234" data-name="Rectangle 1234" width="12.751" height="2.44" transform="translate(84.838 88.845)" fill="#fff"/>
      <path id="Path_3259" data-name="Path 3259" d="M395.954,332.67s-5.746.767-6.134,1.807c0,0,.244,4.252,4.645,8.225l-.672,1.8.209,2.833c1.623-3.819,3.316-9.615,3.316-9.615S397.114,333.751,395.954,332.67Z" transform="translate(-301.333 -238.776)" fill="#e0e0e0"/>
      <g id="Group_130" data-name="Group 130" transform="translate(93.689 94.282)" opacity="0.3">
        <path id="Path_3260" data-name="Path 3260" d="M401.02,333.45s-1.623,5.382-.1,9.052C400.916,342.5,403.335,337.677,401.02,333.45Z" transform="translate(-400.267 -333.45)"/>
      </g>
      <path id="Path_3261" data-name="Path 3261" d="M399.862,340.579s-3.062-4.919-4.172-4.85c0,0-3.774,1.992-5.586,7.618l-1.917.124a11.114,11.114,0,0,0-6.652-6.358S379,342.59,378.9,342.561a10.456,10.456,0,0,0,6.791,2.265c4.148-.095,10.127-.931,10.127-.931S399.364,342.083,399.862,340.579Z" transform="translate(-295.85 -240.312)" fill="#e0e0e0"/>
      <g id="Group_131" data-name="Group 131" transform="translate(83.429 102.201)" opacity="0.3">
        <path id="Path_3262" data-name="Path 3262" d="M387.626,351.1s-4.511-2.171-7.966-1.678C379.64,349.427,383.947,352.533,387.626,351.1Z" transform="translate(-379.66 -349.354)"/>
      </g>
      <g id="Group_132" data-name="Group 132" transform="translate(95.289 100.267)" opacity="0.3">
        <path id="Path_3263" data-name="Path 3263" d="M411.775,345.47s-5.572.732-8.3,3.625C403.48,349.1,408.877,349.319,411.775,345.47Z" transform="translate(-403.48 -345.47)"/>
      </g>
      <path id="Path_3264" data-name="Path 3264" d="M400.743,350.21l.194,23.083-35.491,2.33-2-22.968Z" transform="translate(-288.092 -247.583)" fill="#ff725e"/>
      <g id="Group_133" data-name="Group 133" transform="translate(105.914 102.627)" opacity="0.3">
        <path id="Path_3265" data-name="Path 3265" d="M424.82,350.648l1.509,23,5.422-.358-.194-23.083Z" transform="translate(-424.82 -350.21)"/>
      </g>
      <path id="Path_3266" data-name="Path 3266" d="M430.836,350.56l.6,23.058-1.23.08-1.509-23Z" transform="translate(-320.854 -247.759)" fill="#f5f5f5"/>
      <rect id="Rectangle_1235" data-name="Rectangle 1235" width="2.963" height="23.048" transform="translate(89.446 104.148) rotate(-3.75)" fill="#f5f5f5"/>
      <rect id="Rectangle_1236" data-name="Rectangle 1236" width="36.447" height="2.236" transform="translate(76.246 115.171) rotate(-4.29)" fill="#f5f5f5"/>
      <path id="Path_3267" data-name="Path 3267" d="M364.031,354.15a.249.249,0,0,1-.244-.2l-9.132-45.777a.254.254,0,1,1,.5-.1l9.132,45.777a.249.249,0,0,1-.194.294Z" transform="translate(-283.674 -226.324)" fill="#e0e0e0"/>
      <path id="Path_3268" data-name="Path 3268" d="M381.026,356.409a.249.249,0,0,1-.244-.2l-7.966-42.665a.253.253,0,0,1,.5-.09l7.966,42.665a.249.249,0,0,1-.2.289Z" transform="translate(-292.793 -229.022)" fill="#e0e0e0"/>
      <path id="Path_3269" data-name="Path 3269" d="M397.5,356.2a.249.249,0,0,1-.244-.214l-6.2-42.033a.252.252,0,0,1,.5-.075l6.2,42.033a.249.249,0,0,1-.209.284Z" transform="translate(-301.947 -229.231)" fill="#e0e0e0"/>
      <path id="Path_3270" data-name="Path 3270" d="M414.356,357.68a.249.249,0,0,1-.244-.214l-6.035-40.908a.252.252,0,1,1,.5-.075l6.035,40.908a.249.249,0,0,1-.209.284Z" transform="translate(-310.498 -230.542)" fill="#e0e0e0"/>
      <path id="Path_3271" data-name="Path 3271" d="M430.978,357.874a.249.249,0,0,1-.244-.214l-5.557-37.651a.252.252,0,0,1,.5-.075l5.557,37.652a.249.249,0,0,1-.209.284Z" transform="translate(-319.084 -232.274)" fill="#e0e0e0"/>
      <path id="Path_3272" data-name="Path 3272" d="M447.808,359.579a.249.249,0,0,1-.244-.214L442,321.768a.252.252,0,0,1,.5-.075l5.547,37.582a.249.249,0,0,1-.209.284Z" transform="translate(-327.529 -233.158)" fill="#e0e0e0"/>
      <path id="Path_3273" data-name="Path 3273" d="M464.683,360.2a.249.249,0,0,1-.249-.224l-3.575-35.351a.249.249,0,0,1,.224-.274.254.254,0,0,1,.274.224l3.575,35.351a.249.249,0,0,1-.224.274Z" transform="translate(-337 -234.598)" fill="#e0e0e0"/>
      <path id="Path_3274" data-name="Path 3274" d="M479.544,361.535a.249.249,0,0,1-.249-.239L478.1,327.269a.249.249,0,0,1,.239-.259.259.259,0,0,1,.259.239l1.195,34.027a.249.249,0,0,1-.239.259Z" transform="translate(-345.657 -235.935)" fill="#e0e0e0"/>
      <path id="Path_3275" data-name="Path 3275" d="M355.5,380.993l6.846-.339,16.431-.817,19.807-1,17.128-.851,5.671-.284c.891-.045,1.8-.04,2.694-.134h.12c.4,0,.4-.642,0-.622l-6.846.339-16.431.817-19.807,1-17.133.861-5.671.284c-.891.045-1.8.04-2.694.134h-.12c-.4,0-.4.642,0,.622Z" transform="translate(-283.948 -261.009)" fill="#e0e0e0"/>
      <path id="Path_3276" data-name="Path 3276" d="M351.323,360.175l7.105.149,16.993.354,20.549.428,17.81.373,5.86.125c.911,0,1.842.095,2.753.06h.124a.314.314,0,0,0,0-.622l-7.105-.149-16.993-.354-20.549-.428-17.81-.373-5.86-.124c-.911,0-1.842-.095-2.753-.06h-.125a.314.314,0,0,0,0,.622Z" transform="translate(-281.866 -252.27)" fill="#e0e0e0"/>
      <path id="Path_3277" data-name="Path 3277" d="M345.139,332.661l7.469.707,17.845,1.688,21.574,2.042,18.7,1.773,6.124.578c.961.09,1.947.259,2.913.274h.129c.4.04.4-.583,0-.622l-7.469-.707L394.576,336.7,373,334.662l-18.7-1.773-6.124-.578c-.961-.09-1.947-.259-2.913-.274h-.129C344.74,332,344.74,332.621,345.139,332.661Z" transform="translate(-278.748 -238.458)" fill="#e0e0e0"/>
      <path id="Path_3278" data-name="Path 3278" d="M350.565,354.006a3.874,3.874,0,0,1-3.8-3.077l-9.784-45.6a1,1,0,0,1,1.11-1.175L416.647,316.2a1,1,0,0,1,.832,1.031l-1.827,29.8a3.894,3.894,0,0,1-3.675,3.645L350.8,354Zm-11.357-47.7,9.46,44.214a1.912,1.912,0,0,0,1.992,1.524l61.177-3.326a1.932,1.932,0,0,0,1.822-1.827l1.812-28.878Z" transform="translate(-274.794 -224.453)" fill="#e0e0e0"/>
      <path id="Path_3279" data-name="Path 3279" d="M350.565,354.006a3.874,3.874,0,0,1-3.8-3.077l-9.784-45.6a1,1,0,0,1,1.11-1.175L416.647,316.2a1,1,0,0,1,.832,1.031l-1.827,29.8a3.894,3.894,0,0,1-3.675,3.645L350.8,354Zm-11.357-47.7,9.46,44.214a1.912,1.912,0,0,0,1.992,1.524l61.177-3.326a1.932,1.932,0,0,0,1.822-1.827l1.812-28.878Z" transform="translate(-274.794 -224.453)" fill="none"/>
      <path id="Path_3280" data-name="Path 3280" d="M341.47,308.49l.364.05,1.085.159,4.217.632,15.833,2.395,54.769,8.335h.109v.134l-.931,15.435-.5,8.1-.254,4.123-.065,1.036a2.255,2.255,0,0,1-.264,1.056,2.087,2.087,0,0,1-1.827,1.07l-42.4,2.315-18.5,1a2.056,2.056,0,0,1-1.952-.911,2.206,2.206,0,0,1-.239-.5c-.05-.184-.085-.354-.12-.528l-.219-1.036-.876-4.048-1.613-7.588-6.6-31.229,6.786,31.239,1.633,7.558.866,4.018.219,1.031a2.519,2.519,0,0,0,.334.961,1.837,1.837,0,0,0,1.763.812l18.5-1,42.4-2.315a1.827,1.827,0,0,0,1.618-.936,1.992,1.992,0,0,0,.234-.946l.065-1.036.259-4.123.5-8.1.951-15.46.1.129-54.665-8.464-15.858-2.49-4.242-.627-1.1-.174Z" transform="translate(-277.056 -226.636)" fill="#263238"/>
      <path id="Path_3281" data-name="Path 3281" d="M350.484,353.923l9.092-.538,24.8-1.389,17.123-.946,9.54-.523c.408-.025.827-.035,1.22-.09a3.767,3.767,0,0,0,3.157-3.266c.045-.408.06-.846.09-1.27l.159-2.579L417,321.614l.174-2.833.09-1.429a1.111,1.111,0,0,0-.07-.637.851.851,0,0,0-.443-.418,4.208,4.208,0,0,0-.677-.129l-.712-.11-1.429-.219-2.878-.443L399.344,313.6l-44.587-6.846-10.013-1.539-4.8-.732-1.175-.179-.583-.09a1.16,1.16,0,0,0-.538,0,.876.876,0,0,0-.642.742,1.577,1.577,0,0,0,.065.538l.12.568,3.58,16.774,5.163,24.293.807,3.809a3.854,3.854,0,0,0,3.147,2.948c.388.065.593.045.593.06h-.134a2.946,2.946,0,0,1-.448-.035,3.819,3.819,0,0,1-1.628-.632,3.894,3.894,0,0,1-1.588-2.32l-.831-3.809-5.243-24.273L337,306.115l-.119-.568a1.773,1.773,0,0,1-.07-.607,1.1,1.1,0,0,1,.8-.926,1.381,1.381,0,0,1,.627,0l.582.09,1.175.179,4.8.732,10.013,1.529,44.592,6.826,11.691,1.773,2.878.443,1.429.219.712.11a4.149,4.149,0,0,1,.732.144,1.11,1.11,0,0,1,.578.543,1.369,1.369,0,0,1,.095.767l-.09,1.429-.179,2.833L415.9,343.323l-.159,2.579c-.03.428-.04.846-.09,1.285a3.993,3.993,0,0,1-3.351,3.47c-.428.055-.831.06-1.245.09l-9.54.5-17.123.916-24.8,1.3-6.742.344-1.753.085C350.689,353.928,350.484,353.923,350.484,353.923Z" transform="translate(-274.713 -224.37)" fill="#263238"/>
      <path id="Path_3282" data-name="Path 3282" d="M245.262,297.14a34.339,34.339,0,0,0-1.026,7.513,39.839,39.839,0,0,0,1.593,7.742l-1.26,20.275h0s-6.971,6.627-9.226,9.54c-2.041,2.654-15.813,18.164-15.813,18.164l10.456,8.833s17.063-16.983,20.593-20.857,7.523-6.537,9.017-11.77,4.795-24.4,4.795-24.4l3.953-7.175-1-6.562Z" transform="translate(-215.831 -220.937)" fill="#263238"/>
      <path id="Path_3283" data-name="Path 3283" d="M277.871,340.854c-.164.822-9.321,37.437-9.321,37.437l14.165,3.386c-.284-.433,2.987-13.618,5.706-24.118,2.49-9.664,3.894-12.776,4.536-16.7s3.66-26.887,3.54-28.341a10.2,10.2,0,0,1,.622-3.485l-12.044-2.908Z" transform="translate(-240.443 -225.446)" fill="#263238"/>
      <path id="Path_3284" data-name="Path 3284" d="M277.335,318.65a1.4,1.4,0,0,1-.124.2l-.393.563-1.543,2.181h0c-.453,2.878-1.21,7.469-2.27,13.174-.533,2.848-1.13,5.975-1.882,9.271-.184.827-.388,1.663-.607,2.49-.1.423-.234.841-.354,1.27a12.814,12.814,0,0,1-.428,1.27,4.905,4.905,0,0,1-.652,1.2c-.259.373-.528.742-.817,1.1-.563.722-1.16,1.424-1.768,2.126-3.376,3.864-6.772,7.369-9.858,10.561s-5.9,6-8.29,8.37-4.317,4.267-5.666,5.576l-1.558,1.494-.408.383a1.043,1.043,0,0,1-.144.124,1.055,1.055,0,0,1,.129-.144l.393-.4,1.524-1.534,5.606-5.636c2.36-2.385,5.168-5.228,8.255-8.42s6.473-6.707,9.834-10.561c.607-.7,1.2-1.4,1.763-2.116a9.225,9.225,0,0,0,1.434-2.236,12.616,12.616,0,0,0,.423-1.25c.119-.423.254-.836.353-1.26.219-.841.428-1.673.612-2.49.757-3.291,1.364-6.413,1.912-9.256,1.081-5.686,1.877-10.282,2.375-13.15h0l1.588-2.151.413-.548a1.4,1.4,0,0,1,.149-.2Z" transform="translate(-226.395 -231.737)" fill="#455a64"/>
      <path id="Path_3285" data-name="Path 3285" d="M229.557,425.393l-6.921,7.13s4.919,9.43,3.769,10.874l-14.3-12.945L222.432,418.9Z" transform="translate(-212.1 -282.072)" fill="#263238"/>
      <path id="Path_3286" data-name="Path 3286" d="M224.412,436.929a.787.787,0,0,0-1,.3.757.757,0,0,0,.289,1,.831.831,0,0,0,1.066-.324.787.787,0,0,0-.418-1" transform="translate(-217.74 -291.089)" fill="#e0e0e0"/>
      <path id="Path_3287" data-name="Path 3287" d="M212.1,441l1.085-1.125,13.3,12.816s.388.851-.09,1.235Z" transform="translate(-212.1 -292.601)" fill="#455a64"/>
      <path id="Path_3288" data-name="Path 3288" d="M231.8,445.872c-.065.07-.443-.214-1-.3s-1,.04-1.036-.045.428-.393,1.09-.279S231.874,445.822,231.8,445.872Z" transform="translate(-220.97 -295.287)" fill="#fff"/>
      <path id="Path_3289" data-name="Path 3289" d="M233.834,450.159c-.045.08-.453-.075-.961,0s-.856.334-.921.264.244-.5.876-.588S233.893,450.089,233.834,450.159Z" transform="translate(-222.063 -297.597)" fill="#fff"/>
      <path id="Path_3290" data-name="Path 3290" d="M234.175,454.83c-.075-.045.139-.5.667-.7s1-.08.966,0-.408.1-.836.294S234.25,454.885,234.175,454.83Z" transform="translate(-223.177 -299.704)" fill="#fff"/>
      <path id="Path_3291" data-name="Path 3291" d="M235.088,441.6c-.085.035-.319-.349-.737-.677s-.841-.5-.822-.578.538-.075,1.026.319S235.172,441.584,235.088,441.6Z" transform="translate(-222.859 -292.821)" fill="#fff"/>
      <path id="Path_3292" data-name="Path 3292" d="M282.619,444.705l-1.648,7.713-.05,1.494s9.958,3.68,10.1,5.522l-19.279.04-.04-5.741,2.076-10.182Z" transform="translate(-242.025 -294.449)" fill="#263238"/>
      <path id="Path_3293" data-name="Path 3293" d="M277.688,462.665a.787.787,0,0,0-.543.9.757.757,0,0,0,.886.548.831.831,0,0,0,.568-.956.787.787,0,0,0-1-.463" transform="translate(-244.752 -304.039)" fill="#e0e0e0"/>
      <path id="Path_3294" data-name="Path 3294" d="M271.78,473.923l.05-1.563,18.467.548s.861.373.762,1Z" transform="translate(-242.065 -308.914)" fill="#455a64"/>
      <path id="Path_3295" data-name="Path 3295" d="M289.078,464.061c0,.095-.5.139-.936.443s-.707.7-.8.662.055-.583.617-.941S289.1,463.991,289.078,464.061Z" transform="translate(-249.868 -304.707)" fill="#fff"/>
      <path id="Path_3296" data-name="Path 3296" d="M293.627,465.773c0,.09-.383.254-.707.652s-.408.822-.5.817-.154-.538.249-1.026S293.627,465.683,293.627,465.773Z" transform="translate(-252.396 -305.588)" fill="#fff"/>
      <path id="Path_3297" data-name="Path 3297" d="M297.11,469.021c-.085,0-.219-.448,0-.966s.682-.722.722-.642-.234.354-.423.782S297.2,469.011,297.11,469.021Z" transform="translate(-254.723 -306.422)" fill="#fff"/>
      <path id="Path_3298" data-name="Path 3298" d="M288.487,459.236c-.04.085-.473-.045-1,0s-.946.2-1,.125.349-.418,1-.453S288.532,459.161,288.487,459.236Z" transform="translate(-249.452 -302.158)" fill="#fff"/>
      <path id="Path_3299" data-name="Path 3299" d="M341.321,431.125a.936.936,0,0,1-.792-1.444L354.674,407.5a10.65,10.65,0,0,1,14.21-3.55l36.148,20.369.07.045c2.171,1.494,3.366,3.1,3.54,4.77a.941.941,0,1,1-1.867.194c-.115-1.1-1.026-2.241-2.7-3.4l-36.108-20.349a8.778,8.778,0,0,0-11.706,2.928l-14.146,22.157A.936.936,0,0,1,341.321,431.125Z" transform="translate(-276.508 -273.878)" fill="#e0e0e0"/>
      <path id="Path_3300" data-name="Path 3300" d="M341.309,431.016a1.111,1.111,0,0,0,.4-.1.921.921,0,0,0,.373-.329l.373-.6,2.49-3.983,9.316-14.678,1.519-2.39a10.3,10.3,0,0,1,1.837-2.34,8.878,8.878,0,0,1,9.067-1.822,9.819,9.819,0,0,1,1.553.737l1.494.846,6.3,3.53,28.107,15.823h0a10.233,10.233,0,0,1,1.648,1.384,3.939,3.939,0,0,1,1.085,1.947,1.159,1.159,0,0,0,.129.5.807.807,0,0,0,1.494-.219,1.222,1.222,0,0,0,0-.5,4.481,4.481,0,0,0-.314-1.046,8.59,8.59,0,0,0-3.072-3.351c-1.315-.767-2.679-1.494-3.983-2.27l-7.852-4.426-14.842-8.375-6.911-3.9c-1.125-.622-2.221-1.285-3.316-1.842a10.573,10.573,0,0,0-12.587,2.694,24.466,24.466,0,0,0-1.773,2.589l-10.5,16.381c-1.235,1.932-2.221,3.431-2.848,4.451a.916.916,0,0,0,0,.757.932.932,0,0,0,.378.408,1.052,1.052,0,0,0,.443.124.5.5,0,0,1-.12,0,.911.911,0,0,1-.339-.1.956.956,0,0,1-.433-1.2c.622-1.046,1.588-2.539,2.813-4.481l10.431-16.431a24.556,24.556,0,0,1,1.782-2.614,10.745,10.745,0,0,1,12.811-2.783c1.125.573,2.206,1.22,3.336,1.842l6.916,3.913,14.853,8.36,7.857,4.426c1.329.757,2.664,1.494,4.023,2.28a8.834,8.834,0,0,1,3.162,3.46,4.763,4.763,0,0,1,.329,1.105,1.464,1.464,0,0,1,0,.607,1.07,1.07,0,0,1-1.957.294,1.415,1.415,0,0,1-.164-.573,3.694,3.694,0,0,0-1-1.812,9.957,9.957,0,0,0-1.608-1.349h0L375.923,410.1l-6.259-3.53-1.494-.851a9.6,9.6,0,0,0-1.519-.727,8.679,8.679,0,0,0-8.863,1.763,10.112,10.112,0,0,0-1.812,2.3l-1.524,2.385-9.415,14.643-2.544,3.948-.388.592a.936.936,0,0,1-.393.334A.747.747,0,0,1,341.309,431.016Z" transform="translate(-276.497 -273.769)" fill="#263238"/>
      <circle id="Ellipse_262" data-name="Ellipse 262" cx="4.416" cy="4.416" r="4.416" transform="translate(59.724 157.725)" fill="#263238"/>
      <path id="Path_3301" data-name="Path 3301" d="M339.626,459.014a.633.633,0,0,0,.184-.448v-.378a.637.637,0,0,0-.637-.637h-4.1a.637.637,0,0,0-.637.637v.378a.622.622,0,0,0,.274.5l-1.942.368v1.061l2.106.767,1.2,2.987a.931.931,0,0,0,1.728,0l1.205-3.017,2.1-.5v-1.369Z" transform="translate(-272.688 -301.478)" fill="#e0e0e0"/>
      <path id="Path_3302" data-name="Path 3302" d="M339.471,458.919l.408.065c.259.045.622.1,1.08.189H341v1.494h-.06l-2.1.528.07-.06-.662,1.7-.363.926c-.065.159-.115.309-.2.5a1.058,1.058,0,0,1-1.563.373,1.08,1.08,0,0,1-.373-.5l-.214-.528-.881-2.176-.095-.234.075.075-2.1-.752-.085-.03v-1.255h.1l1.942-.359-.045.214a.762.762,0,0,1-.234-.413,1.917,1.917,0,0,1,0-.458.891.891,0,0,1,.085-.458.747.747,0,0,1,.339-.324.886.886,0,0,1,.438-.07h1.135l2.49.03a2.671,2.671,0,0,1,.5.03.687.687,0,0,1,.383.269.677.677,0,0,1,.125.383v.319a.563.563,0,0,1-.224.533.762.762,0,0,0,.149-.533,1.025,1.025,0,0,0-.129-.637.573.573,0,0,0-.329-.214,2.769,2.769,0,0,0-.5,0l-2.49.025h-1.135a.673.673,0,0,0-.344.055.553.553,0,0,0-.294.588,1.863,1.863,0,0,0,0,.393.528.528,0,0,0,.209.284l.224.159-.274.055-1.942.373.1-.124v1.06l-.085-.119,2.1.747h.055v.055l.095.234.876,2.176.209.528a.827.827,0,0,0,.284.388.807.807,0,0,0,1.2-.279c.065-.139.13-.314.194-.468l.373-.921.687-1.688v-.05h.05l2.106-.5-.06.08v-1.369l.045.06c-.5-.115-.866-.214-1.11-.274Q339.613,458.973,339.471,458.919Z" transform="translate(-272.532 -301.384)" fill="#263238"/>
      <circle id="Ellipse_263" data-name="Ellipse 263" cx="0.498" cy="0.498" r="0.498" transform="translate(63.642 161.828)" fill="#263238"/>
      <circle id="Ellipse_264" data-name="Ellipse 264" cx="4.72" cy="4.72" r="4.72" transform="translate(126.483 157.117)" fill="#263238"/>
      <path id="Path_3303" data-name="Path 3303" d="M474.214,457.668a.632.632,0,0,0,.179-.443v-.5a.637.637,0,0,0-.637-.637h-4.481a.637.637,0,0,0-.637.637v.5a.623.623,0,0,0,.264.5l-2.051.388v1.135l2.241.8,1.285,3.177a1,1,0,0,0,1.847,0L473.507,460l2.241-.543V458Z" transform="translate(-340.009 -300.745)" fill="#e0e0e0"/>
      <path id="Path_3304" data-name="Path 3304" d="M474.094,457.583l.428.07,1.145.2h.045v1.588h-.06l-2.236.563.07-.06-.707,1.822-.388,1a4.4,4.4,0,0,1-.214.5,1.117,1.117,0,0,1-1.658.388,1.15,1.15,0,0,1-.393-.528l-.229-.563-.941-2.33-.095-.234.075.075-2.241-.807-.085-.03v-1.285h.1l2.051-.378-.05.214a.761.761,0,0,1-.3-.453,3.331,3.331,0,0,1,0-.5,1,1,0,0,1,.08-.5.742.742,0,0,1,.363-.349,1,1,0,0,1,.463-.065h1.215l2.694.025a4.059,4.059,0,0,1,.548,0,.687.687,0,0,1,.533.7v.339a.757.757,0,0,1-.1.458.309.309,0,0,1-.115.12.786.786,0,0,0,.144-.578,1.02,1.02,0,0,0-.124-.687.577.577,0,0,0-.354-.224,4.413,4.413,0,0,0-.5,0l-2.694.03h-1.215a.8.8,0,0,0-.373.05.523.523,0,0,0-.254.249.762.762,0,0,0-.05.388,3.69,3.69,0,0,0,0,.433.528.528,0,0,0,.209.309l.219.159-.269.05-2.046.393.1-.125v1.135l-.085-.12,2.241.8h.055v.055l.095.234.941,2.33.224.563a.892.892,0,0,0,.3.423.871.871,0,0,0,1.295-.294c.07-.149.139-.334.2-.5l.4-1,.732-1.807v-.05h.05l2.246-.5-.06.08v-1.464l.045.06c-.5-.119-.911-.219-1.17-.289S474.084,457.588,474.094,457.583Z" transform="translate(-339.888 -300.66)" fill="#263238"/>
      <circle id="Ellipse_265" data-name="Ellipse 265" cx="0.533" cy="0.533" r="0.533" transform="translate(130.67 161.504)" fill="#263238"/>
      <path id="Path_3305" data-name="Path 3305" d="M407.1,399.864a2.457,2.457,0,0,1-.408.04l-1.18.065-4.337.229c-3.66.194-8.718.5-14.3.871l-14.3.926-4.337.244-1.18.05a2.446,2.446,0,0,1-.413,0,2.467,2.467,0,0,1,.408-.055l1.175-.1,4.332-.329c3.66-.269,8.713-.637,14.295-1s10.645-.647,14.31-.8c1.832-.08,3.316-.124,4.342-.144h1.18A2.459,2.459,0,0,1,407.1,399.864Z" transform="translate(-289.699 -272.511)" fill="#263238"/>
      <path id="Path_3306" data-name="Path 3306" d="M290.547,194.65s-6.871,2.37-9.291,7.025c-1.329,2.564-5.138,17.337-5.138,17.337l-2.7,13.653-6.194,16.6s2.46,2.689,13.7,3.983a118.407,118.407,0,0,1,17.287,3.032s.951-14.753,1.952-20.7,3.386-23.715,3.321-25.393-1.872-9.46-1.872-9.46a53.275,53.275,0,0,1-5.81-3.167A45.481,45.481,0,0,0,290.547,194.65Z" transform="translate(-239.776 -169.477)" fill="#ff725e"/>
      <g id="Group_134" data-name="Group 134" transform="translate(34.918 60.698)" opacity="0.3">
        <path id="Path_3307" data-name="Path 3307" d="M282.23,266a27.883,27.883,0,0,0,5.029,4.83c3.117,2.325,17.242,11.183,17.242,11.183l3.55-3.764Z" transform="translate(-282.23 -266)"/>
      </g>
      <path id="Path_3308" data-name="Path 3308" d="M289.653,204.027s-8.39,24.522-8,27.171,13.548,8.464,22.246,13.03l4.148-4.735-14.887-11.452s8.41-18.731,9.072-21.908-2.121-7.966-4.372-8.21S289.653,204.027,289.653,204.027Z" transform="translate(-247.017 -171.117)" fill="#ffbf9d"/>
      <path id="Path_3309" data-name="Path 3309" d="M299.686,197.2c-4.257-.408-7.03,3.037-8.793,6.194s-5.332,15.6-5.332,15.6l14.131,4.307c.368-.378,5.138-14.375,5.283-17.312S303.948,197.6,299.686,197.2Z" transform="translate(-248.984 -170.739)" fill="#ff725e"/>
      <path id="Path_3310" data-name="Path 3310" d="M299.525,197.186h.144l.428.065a4.74,4.74,0,0,1,1.548.607,5.9,5.9,0,0,1,1.812,1.932,11.273,11.273,0,0,1,1.215,7.643c-.324,1.534-.782,3.142-1.285,4.84s-1.065,3.485-1.678,5.333q-.456,1.389-.961,2.823l-.5,1.444-.274.727a5.184,5.184,0,0,1-.344.757l-.035.06-.09-.03-6.383-1.917-7.767-2.37-.119-.035.035-.12c1.125-3.844,2.241-7.424,3.346-10.61a46.325,46.325,0,0,1,1.743-4.431,18.628,18.628,0,0,1,2.236-3.445,10.722,10.722,0,0,1,2.49-2.236,7.181,7.181,0,0,1,2.32-.946,5.658,5.658,0,0,1,.9-.119,3.985,3.985,0,0,1,.662,0l.4.03h.134a9.393,9.393,0,0,0-2.091.164,7.216,7.216,0,0,0-2.27.971,10.7,10.7,0,0,0-2.44,2.236,18.676,18.676,0,0,0-2.186,3.426,47.028,47.028,0,0,0-1.708,4.421c-1.09,3.187-2.2,6.767-3.311,10.61l-.085-.154,7.767,2.365,6.373,1.937-.085.075c1.434-3.864,2.674-7.638,3.7-11.009.5-1.693,1-3.3,1.3-4.82a11.2,11.2,0,0,0-1.135-7.538,5.876,5.876,0,0,0-1.748-1.927,4.934,4.934,0,0,0-1.494-.637l-.418-.085Z" transform="translate(-248.823 -170.728)" fill="#263238"/>
      <path id="Path_3311" data-name="Path 3311" d="M334.248,302.273a.747.747,0,0,1-.612-.319l-3.291-4.71a.747.747,0,0,1,1.225-.856l3.291,4.71a.747.747,0,0,1-.612,1.175Z" transform="translate(-271.402 -220.399)" fill="#e0e0e0"/>
      <circle id="Ellipse_266" data-name="Ellipse 266" cx="3.391" cy="3.391" r="3.391" transform="translate(55.696 73.694)" fill="#455a64"/>
      <path id="Path_3312" data-name="Path 3312" d="M324,283.444a10.147,10.147,0,0,0,.886,2.918c.543.782,1.295.408,2.111.647a1.325,1.325,0,0,1,1.125,1.09c.134.5.772,4.048,1.394,4.481a.632.632,0,0,0,1.055-.408c0-.5-.642-5.039-.642-5.039a16.367,16.367,0,0,1,1.155,3.44c.035.921.115,2.833.926,2.933.443.055.717.065.846-.717a15.936,15.936,0,0,0,.169-3.032c-.07-.612-.5-2.554-.5-2.554a14.566,14.566,0,0,1,1.225,2.987c-.035.538-.543.951-.2,1.364a1.046,1.046,0,0,0,1.429-.1,4.98,4.98,0,0,0,.717-2.181,25.338,25.338,0,0,0-.747-2.554,9.306,9.306,0,0,1,1.2,2.151c.1.612,0,2.987.359,3.286s1.056.5,1.225-.309a27.336,27.336,0,0,0,.274-3.485c0-.752-1.9-3.62-2.275-4.167s-2.35-.886-2.793-1.155-4.063-2.186-4.063-2.186Z" transform="translate(-268.285 -212.758)" fill="#ffbf9d"/>
      <path id="Path_3313" data-name="Path 3313" d="M335.19,206.83a1.205,1.205,0,0,1,.1.254l.249.747.886,2.813h0a48.123,48.123,0,0,1,.5,5.557v1.678l-.134,1.753-.324,3.709c-.428,4.6-.961,8.753-1.444,11.741-.234,1.494-.458,2.7-.617,3.53l-.2.956a.17.17,0,1,1-.05-.01l.149-.961.533-3.54c.433-2.987.941-7.14,1.364-11.741l.329-3.709.139-1.748a14.161,14.161,0,0,0,0-1.658,53.052,53.052,0,0,0-.413-5.532h0l-.812-2.833-.2-.762A1.209,1.209,0,0,1,335.19,206.83Z" transform="translate(-273.366 -175.593)" fill="#263238"/>
    </g>
  </g>
</svg>
