<svg xmlns="http://www.w3.org/2000/svg" width="314" height="233.968" viewBox="0 0 314 233.968">
  <g id="Mobile_login-01" data-name="Mobile login-01" transform="translate(0 -55)">
    <g id="Background_complete" data-name="Background complete" transform="translate(0 55)">
      <rect id="Rectangle_1237" data-name="Rectangle 1237" width="314" height="0.157" transform="translate(0 205.607)" fill="#e6e6e6"/>
      <rect id="Rectangle_1238" data-name="Rectangle 1238" width="20.799" height="0.157" transform="translate(57.588 215.109)" fill="#e6e6e6"/>
      <rect id="Rectangle_1239" data-name="Rectangle 1239" width="12.051" height="0.157" transform="translate(38.955 215.109)" fill="#e6e6e6"/>
      <rect id="Rectangle_1240" data-name="Rectangle 1240" width="12.051" height="0.157" transform="translate(120.174 217.42)" fill="#e6e6e6"/>
      <rect id="Rectangle_1241" data-name="Rectangle 1241" width="27.123" height="0.157" transform="translate(167.94 220.924)" fill="#e6e6e6"/>
      <rect id="Rectangle_1242" data-name="Rectangle 1242" width="3.975" height="0.157" transform="translate(158.375 220.924)" fill="#e6e6e6"/>
      <rect id="Rectangle_1243" data-name="Rectangle 1243" width="58.831" height="0.157" transform="translate(225.873 217.42)" fill="#e6e6e6"/>
      <path id="Path_3314" data-name="Path 3314" d="M163.05,232.6H41.8a3.586,3.586,0,0,1-3.586-3.586V58.554A3.586,3.586,0,0,1,41.8,55H163.05a3.586,3.586,0,0,1,3.586,3.586V229.013A3.586,3.586,0,0,1,163.05,232.6ZM41.8,55.126a3.429,3.429,0,0,0-3.429,3.429V229.013a3.429,3.429,0,0,0,3.429,3.429H163.05a3.429,3.429,0,0,0,3.429-3.429V58.554a3.429,3.429,0,0,0-3.429-3.429Z" transform="translate(-14.214 -55)" fill="#e6e6e6"/>
      <path id="Path_3315" data-name="Path 3315" d="M379.353,232.6H258.086a3.586,3.586,0,0,1-3.586-3.586V58.554A3.586,3.586,0,0,1,258.086,55H379.353a3.586,3.586,0,0,1,3.573,3.554V229.013A3.586,3.586,0,0,1,379.353,232.6ZM258.086,55.126a3.429,3.429,0,0,0-3.429,3.429V229.013a3.429,3.429,0,0,0,3.429,3.429H379.353a3.429,3.429,0,0,0,3.429-3.429V58.554a3.429,3.429,0,0,0-3.429-3.429Z" transform="translate(-94.674 -55)" fill="#e6e6e6"/>
      <rect id="Rectangle_1244" data-name="Rectangle 1244" width="13.81" height="54.78" transform="translate(154.117 151.963)" fill="#e0e0e0"/>
      <path id="Path_3316" data-name="Path 3316" d="M261.591,379.791h2.625V372.33H258.84Z" transform="translate(-96.288 -173.047)" fill="#fafafa"/>
      <rect id="Rectangle_1245" data-name="Rectangle 1245" width="13.81" height="54.78" transform="translate(93.603 151.963)" fill="#e0e0e0"/>
      <rect id="Rectangle_1246" data-name="Rectangle 1246" width="62.8" height="50.202" transform="translate(105.127 151.963)" fill="#fafafa"/>
      <path id="Path_3317" data-name="Path 3317" d="M229.126,300.765v13.282h-58.26V300.765h58.247m.245-.245H170.64v13.766h58.731V300.52Z" transform="translate(-63.478 -146.333)" fill="#e0e0e0"/>
      <path id="Path_3318" data-name="Path 3318" d="M170.019,379.791H167.4V372.33h5.369Z" transform="translate(-62.273 -173.047)" fill="#fafafa"/>
      <circle id="Ellipse_267" data-name="Ellipse 267" cx="1.388" cy="1.388" r="1.388" transform="translate(135.139 159.682)" fill="#e6e6e6"/>
      <path id="Path_3319" data-name="Path 3319" d="M229.126,326.225v13.282h-58.26V326.225h58.247m.245-.245H170.64v13.766h58.731V325.993Z" transform="translate(-63.478 -155.805)" fill="#e0e0e0"/>
      <circle id="Ellipse_268" data-name="Ellipse 268" cx="1.388" cy="1.388" r="1.388" transform="translate(135.139 175.677)" fill="#e6e6e6"/>
      <path id="Path_3320" data-name="Path 3320" d="M229.126,351.695v13.288h-58.26V351.695h58.247m.245-.245H170.64v13.766h58.731V351.45Z" transform="translate(-63.478 -165.279)" fill="#e0e0e0"/>
      <circle id="Ellipse_269" data-name="Ellipse 269" cx="1.388" cy="1.388" r="1.388" transform="translate(135.139 191.672)" fill="#e6e6e6"/>
      <rect id="Rectangle_1247" data-name="Rectangle 1247" width="13.81" height="86.601" transform="translate(85.169 120.149)" fill="#e0e0e0"/>
      <path id="Path_3321" data-name="Path 3321" d="M151.8,379.791h2.625V372.33H149.06Z" transform="translate(-55.45 -173.047)" fill="#fafafa"/>
      <rect id="Rectangle_1248" data-name="Rectangle 1248" width="13.81" height="86.601" transform="translate(33.56 120.149)" fill="#e0e0e0"/>
      <rect id="Rectangle_1249" data-name="Rectangle 1249" width="53.901" height="82.023" transform="translate(45.078 120.149)" fill="#fafafa"/>
      <path id="Path_3322" data-name="Path 3322" d="M124.555,249.829V268.4H75.3v-18.57h49.26m.289-.289H75v19.129h49.832V249.553Z" transform="translate(-27.9 -127.369)" fill="#e0e0e0"/>
      <path id="Path_3323" data-name="Path 3323" d="M139.845,283.009v49.26H116.383v-49.26h23.462m.289-.289H116.1v49.832h24.034V282.72Z" transform="translate(-43.189 -139.712)" fill="#e0e0e0"/>
      <path id="Path_3324" data-name="Path 3324" d="M98.764,283.009v49.26H75.3v-49.26H98.764m.289-.289H75v49.832H99.034V282.72Z" transform="translate(-27.9 -139.712)" fill="#e0e0e0"/>
      <path id="Path_3325" data-name="Path 3325" d="M74.405,379.791H71.78V372.33h5.376Z" transform="translate(-26.702 -173.047)" fill="#fafafa"/>
      <circle id="Ellipse_270" data-name="Ellipse 270" cx="1.388" cy="1.388" r="1.388" transform="translate(70.644 130.367)" fill="#e6e6e6"/>
      <circle id="Ellipse_271" data-name="Ellipse 271" cx="1.388" cy="1.388" r="1.388" transform="translate(75.611 165.365)" fill="#e6e6e6"/>
      <circle id="Ellipse_272" data-name="Ellipse 272" cx="1.388" cy="1.388" r="1.388" transform="translate(65.67 165.365)" fill="#e6e6e6"/>
      <path id="Path_3326" data-name="Path 3326" d="M98.325,207.87H92.5a61.505,61.505,0,0,1,1.011,8.553c0,3.171-4.434,15.593,1.884,15.593s1.884-12.422,1.884-15.593A59.743,59.743,0,0,1,98.325,207.87Z" transform="translate(-34.225 -111.868)" fill="#e0e0e0"/>
      <path id="Path_3327" data-name="Path 3327" d="M66.8,228.15v3.768a7.649,7.649,0,0,0,7.624,7.624h3.768a7.649,7.649,0,0,0,7.624-7.624V228.15Z" transform="translate(-24.85 -119.412)" fill="#f5f5f5"/>
      <path id="Path_3328" data-name="Path 3328" d="M195.67,284.26c0,4.4,4.917,7.982,10.927,7.982h5.426c6.01,0,10.927-3.592,10.927-7.982Z" transform="translate(-72.789 -140.285)" fill="#e0e0e0"/>
      <path id="Path_3329" data-name="Path 3329" d="M402.06,228.3a57.545,57.545,0,0,0-11.995,14.526,37.465,37.465,0,0,0-5.175,15.819c0-7.222.038-14.978.063-22.3.835-1.884,2.744-6.23,4.113-9.659,4.572-11.448,6.28-14.262,10.381-24.14,5.482-13.188,11.1-28.8,9.489-27.55-3.278,2.543-15.838,26.062-17.195,29.428a94.239,94.239,0,0,0-6.776,28.166c0-6.908.05-13.188.075-18.068.082-15.895.352-21.025.484-22.608.509-.8,1.105-1.74,1.457-2.248,2.952-4.264,4.088-7.9,6.87-14.262,3.938-9.018,7.335-25.026,6.343-24.216-4.132,3.36-7.385,10.588-11.668,19.8s-3.058,14.507-3.906,22.369c-.176,1.545-.314,7.366-.414,15.443-1.112-8.6-3.19-14.268-6.99-19.418-4.672-6.337-9.194-10.613-12.51-12.849s5.727,13.326,10.048,20.1c3.85,6.048,7.4,11.386,9.42,16.642-.107,10.94-.157,24.793-.157,37.68a75.713,75.713,0,0,0-4.773-17.082c-2.6-5.878-6.594-14.9-9.772-17.961-.766-.735,3.328,16.805,5.953,21.471s4.534,9.131,6.155,11.756c.383.628,1.664,3,2.393,4.365,0,15.744.088,29.635.226,34.364h.678c-.044-1.218-.057-9.232-.038-19.832,1.639-5.752,5.382-12.321,8.478-18.312C396.722,243.188,405.35,225.636,402.06,228.3Z" transform="translate(-135.404 -90.773)" fill="#e0e0e0"/>
      <path id="Path_3330" data-name="Path 3330" d="M399.9,372.782H380.218L378.73,353.49h22.658Z" transform="translate(-140.888 -166.038)" fill="#f0f0f0"/>
      <path id="Path_3331" data-name="Path 3331" d="M401.549,353.212H375.958l-.728-6.512h27.054Z" transform="translate(-139.586 -163.512)" fill="#f5f5f5"/>
      <rect id="Rectangle_1250" data-name="Rectangle 1250" width="35.199" height="38.653" transform="translate(42.836 12.874)" fill="#e0e0e0"/>
      <rect id="Rectangle_1251" data-name="Rectangle 1251" width="36.361" height="38.653" transform="translate(45.486 12.874)" fill="#f5f5f5"/>
      <rect id="Rectangle_1252" data-name="Rectangle 1252" width="32.562" height="30.27" transform="translate(78.801 15.92) rotate(90)" fill="#fff"/>
      <rect id="Rectangle_1253" data-name="Rectangle 1253" width="16.774" height="15.593" transform="translate(71.46 23.807) rotate(90)" fill="#f5f5f5"/>
      <rect id="Rectangle_1254" data-name="Rectangle 1254" width="32.7" height="35.909" transform="translate(224.811 17.377)" fill="#e0e0e0"/>
      <rect id="Rectangle_1255" data-name="Rectangle 1255" width="33.774" height="35.909" transform="translate(227.279 17.377)" fill="#f5f5f5"/>
      <rect id="Rectangle_1256" data-name="Rectangle 1256" width="30.244" height="28.116" transform="translate(258.227 20.209) rotate(90)" fill="#fff"/>
      <circle id="Ellipse_273" data-name="Ellipse 273" cx="8.773" cy="8.773" r="8.773" transform="translate(235.393 26.558)" fill="#f5f5f5"/>
      <rect id="Rectangle_1257" data-name="Rectangle 1257" width="26.112" height="28.674" transform="translate(88.491 35.922)" fill="#e0e0e0"/>
      <rect id="Rectangle_1258" data-name="Rectangle 1258" width="26.973" height="28.674" transform="translate(90.457 35.922)" fill="#f5f5f5"/>
      <rect id="Rectangle_1259" data-name="Rectangle 1259" width="24.153" height="22.451" transform="translate(115.169 38.182) rotate(90)" fill="#fff"/>
      <path id="Path_3332" data-name="Path 3332" d="M161.882,125.3l-6.142,10.638h12.284Z" transform="translate(-57.935 -81.152)" fill="#f5f5f5"/>
    </g>
    <g id="Shadow" transform="translate(35.237 274.75)">
      <ellipse id="Ellipse_274" data-name="Ellipse 274" cx="121.763" cy="7.109" rx="121.763" ry="7.109" transform="translate(0 0)" fill="#f5f5f5"/>
    </g>
    <g id="Character_2" data-name="Character 2" transform="translate(180.343 81.708)">
      <path id="Path_3333" data-name="Path 3333" d="M330.353,161.942l-6.23-2.512s-8.221,14.99-10.576,15.75c-3.2,1.03-9.828,3.894-13.766,4.427a7.055,7.055,0,0,0-1.325,3.291c5.282,1.758,16.887-.578,19.374-2.424C323.489,176.254,330.353,161.942,330.353,161.942Z" transform="translate(-291.367 -120.556)" fill="#e58a7b"/>
      <path id="Path_3334" data-name="Path 3334" d="M344.376,155.945c1.162,4.3-5.131,12.924-5.131,12.924L331,164.241s1.539-3.548,3.429-7.159C337.45,151.247,343.051,151.053,344.376,155.945Z" transform="translate(-303.475 -117.969)" fill="#407bff"/>
      <path id="Path_3335" data-name="Path 3335" d="M344.376,155.945c1.162,4.3-5.131,12.924-5.131,12.924L331,164.241s1.539-3.548,3.429-7.159C337.45,151.247,343.051,151.053,344.376,155.945Z" transform="translate(-303.475 -117.969)" opacity="0.2"/>
      <path id="Path_3336" data-name="Path 3336" d="M336.21,169.325l3.247,1.821.565-9.966C338.138,162.631,336.807,167,336.21,169.325Z" transform="translate(-305.413 -121.207)" opacity="0.2"/>
      <path id="Path_3337" data-name="Path 3337" d="M341.381,151.994s-6.418,14.281-2.675,40.87H364c.4-3.881-.929-22.822,3.887-41.109a64.45,64.45,0,0,0-8.4-1.068,92.844,92.844,0,0,0-10.751,0,48.986,48.986,0,0,0-7.348,1.306Z" transform="translate(-305.905 -117.246)" fill="#407bff"/>
      <path id="Path_3338" data-name="Path 3338" d="M341.381,151.994s-6.418,14.281-2.675,40.87H364c.4-3.881-.929-22.822,3.887-41.109a64.45,64.45,0,0,0-8.4-1.068,92.844,92.844,0,0,0-10.751,0,48.986,48.986,0,0,0-7.348,1.306Z" transform="translate(-305.905 -117.246)" opacity="0.2"/>
      <path id="Path_3339" data-name="Path 3339" d="M334.32,416.418c-.038.672,9.552,1.218,21.415,1.218s21.522-.546,21.559-1.218-9.546-1.218-21.415-1.218S334.364,415.746,334.32,416.418Z" transform="translate(-304.71 -215.702)" fill="#e8ecf1"/>
      <rect id="Rectangle_1260" data-name="Rectangle 1260" width="4.81" height="10.703" transform="translate(42.006 184.632) rotate(-21.161)" fill="#e58a7b"/>
      <path id="Path_3340" data-name="Path 3340" d="M389.222,402.966h-4.729L382.76,392.02h4.729Z" transform="translate(-322.729 -207.079)" fill="#e58a7b"/>
      <path id="Path_3341" data-name="Path 3341" d="M380.489,408.58H385.8a.383.383,0,0,1,.383.32l.685,4.2a.741.741,0,0,1-.741.842c-1.884-.031-2.744-.138-5.081-.138-1.438,0-4.4.151-6.393.151s-2.129-1.959-1.306-2.142c3.693-.8,5.124-1.884,6.355-2.945A1.211,1.211,0,0,1,380.489,408.58Z" transform="translate(-319.052 -213.239)" fill="#263238"/>
      <path id="Path_3342" data-name="Path 3342" d="M354.045,405.072l5.024-1.463a.389.389,0,0,1,.465.195l1.884,3.768a.722.722,0,0,1-.471,1c-1.821.5-3.052.81-5.338,1.476-1.576.458-3.184,1.206-4.741,1.7a22.587,22.587,0,0,1-4.93.358c-1.941,0-2.374-2.047-1.545-2.142,2.1-.239,2.386-.126,3.548-.71a16.24,16.24,0,0,0,5.074-3.5A2.367,2.367,0,0,1,354.045,405.072Z" transform="translate(-308.308 -211.384)" fill="#263238"/>
      <path id="Path_3343" data-name="Path 3343" d="M297.481,190.179l-5.2-2.179-2.142,5.765a21.421,21.421,0,0,0,6.431,0Z" transform="translate(-288.275 -131.184)" fill="#e58a7b"/>
      <path id="Path_3344" data-name="Path 3344" d="M287.308,187.76l-.138,3.831,1.865,2.072,2.142-5.765Z" transform="translate(-287.17 -131.094)" fill="#e58a7b"/>
      <rect id="Rectangle_1261" data-name="Rectangle 1261" width="4.823" height="5.533" transform="translate(42.607 185.48) rotate(-21.11)" fill="#cf6f64"/>
      <path id="Path_3345" data-name="Path 3345" d="M387.489,392.02H382.76l.9,5.646h4.729Z" transform="translate(-322.729 -207.079)" fill="#cf6f64"/>
      <path id="Path_3346" data-name="Path 3346" d="M338.12,195.341c.088,1.137.2,2.3.333,3.492l18.8-6.1A13.477,13.477,0,0,0,364.5,187.5c.069-1.677.17-3.441.308-5.281.063-.9.144-1.815.226-2.744s.195-1.953.308-2.952Z" transform="translate(-306.123 -126.913)" opacity="0.2"/>
      <path id="Path_3347" data-name="Path 3347" d="M347.528,170.356l-.628-.075c.37-3.14,2.713-5.608,5.181-5.552v.628C349.921,165.313,347.861,167.543,347.528,170.356Z" transform="translate(-309.39 -122.527)" fill="#fff"/>
      <path id="Path_3348" data-name="Path 3348" d="M353.167,179.6h-.107v-.628c2.16.082,4.189-2.173,4.522-4.98l.628.075C357.877,177.136,355.61,179.6,353.167,179.6Z" transform="translate(-311.681 -125.972)" fill="#fff"/>
      <path id="Path_3349" data-name="Path 3349" d="M365.265,131.5c-.879,3.46-1.928,9.8.358,12.108,0,0-1.6,3.511-8.026,3.511-5.872,0-2.726-3.511-2.726-3.511,3.912-.923,3.982-3.768,3.467-6.468Z" transform="translate(-312.042 -110.166)" fill="#e58a7b"/>
      <path id="Path_3350" data-name="Path 3350" d="M364.991,135.16l-4.1,3.335a10.794,10.794,0,0,1,.22,1.884c1.2,1.193,3.6-1.827,3.85-3.372a5.163,5.163,0,0,0,.031-1.846Z" transform="translate(-314.594 -111.527)" fill="#cf6f64"/>
      <path id="Path_3351" data-name="Path 3351" d="M349.481,129.554a4.126,4.126,0,0,0,2.663,1.972c1.507.333,2.267-1.049,1.853-2.449-.377-1.256-1.608-2.945-3.14-2.656a2.091,2.091,0,0,0-1.375,3.134Z" transform="translate(-310.237 -108.264)" fill="#cf6f64"/>
      <path id="Path_3352" data-name="Path 3352" d="M352.374,113.688c-2.349,1.074-3.178,10.406-.226,11.788S356.82,111.647,352.374,113.688Z" transform="translate(-310.637 -103.469)" fill="#263238"/>
      <path id="Path_3353" data-name="Path 3353" d="M364.985,119.122c-.565,4.685-.628,7.442-3.14,9.841a6.035,6.035,0,0,1-10.268-3.2c-.76-4.208.289-11.16,4.98-13.025a6.048,6.048,0,0,1,8.428,6.387Z" transform="translate(-311.046 -102.994)" fill="#e58a7b"/>
      <path id="Path_3354" data-name="Path 3354" d="M355.135,110.171c3.473-.892,6.029-1.495,5.118,1.407-1.218,3.862-2.675,7.605-.716,7.781,1.187.107,6.468-2.135,5.8-4.4-.584-1.972,1.884-2.512,2.324-3.511,1.627-3.624-3.027-3.14-2.2-5.344s-3.768-5.74-6.28-3.975c-4.088,2.851-11.1,2.813-7.417-1.884,2.644-3.347-2.072-2.663-2.072-2.663s2.851,1.689-1.947,4.3C342.67,104.682,347.323,112.174,355.135,110.171Z" transform="translate(-308.915 -97.528)" fill="#263238"/>
      <path id="Path_3355" data-name="Path 3355" d="M373.18,129.554a4.823,4.823,0,0,1-2.9,1.972c-1.545.333-2.141-1.049-1.564-2.449.521-1.256,1.953-2.945,3.435-2.656S374.009,128.324,373.18,129.554Z" transform="translate(-317.427 -108.264)" fill="#e58a7b"/>
      <path id="Path_3356" data-name="Path 3356" d="M336.685,217.94s-4.245,37.994-4.578,52.413c-.345,15,14.387,61.789,14.387,61.789L354.03,329s-8.792-42.748-7.536-57.481c1.331-16.058,6.833-53.556,6.833-53.556Z" transform="translate(-303.884 -142.321)" fill="#407bff"/>
      <path id="Path_3357" data-name="Path 3357" d="M355.171,233.641c-3.379,7.021-1.105,20.9.728,29.133.7-5.809,1.526-12.114,2.311-17.948C358.135,235.858,357.438,228.9,355.171,233.641Z" transform="translate(-311.82 -147.592)" opacity="0.2"/>
      <path id="Path_3358" data-name="Path 3358" d="M361.059,390.83c.038,0,.892,2.405.892,2.405l-8.691,3.649-1.369-2.55Z" transform="translate(-311.246 -206.636)" fill="#407bff"/>
      <path id="Path_3359" data-name="Path 3359" d="M353.69,217.94s3.247,36.135,5.4,49.668c2.355,14.827,11.618,64.207,11.618,64.207h8.66s-5.187-48.18-6.167-62.863c-1.061-15.932-3.184-51.012-3.184-51.012Z" transform="translate(-311.915 -142.321)" fill="#407bff"/>
      <path id="Path_3360" data-name="Path 3360" d="M388.91,395.468c.038,0,.289,2.418.289,2.418h-9.521L379,395.11Z" transform="translate(-321.331 -208.229)" fill="#407bff"/>
      <path id="Path_3361" data-name="Path 3361" d="M384.415,329.714a.082.082,0,0,1-.082-.069c-.05-.44-4.729-43.96-5.608-57.148-.955-14.312-2.876-46.039-2.9-46.359a.082.082,0,0,1,.075-.088h0a.082.082,0,0,1,.082.075c0,.32,1.941,32.028,2.9,46.359.879,13.188,5.558,56.683,5.608,57.148a.082.082,0,0,1-.069.088Z" transform="translate(-320.151 -145.338)" opacity="0.2"/>
      <path id="Path_3362" data-name="Path 3362" d="M361.087,124.881c0,.383-.245.691-.49.691s-.433-.308-.408-.691.245-.691.49-.691S361.112,124.5,361.087,124.881Z" transform="translate(-314.332 -107.446)" fill="#263238"/>
      <path id="Path_3363" data-name="Path 3363" d="M354.227,124.881c0,.383-.245.691-.49.691s-.433-.308-.408-.691.245-.691.49-.691S354.252,124.5,354.227,124.881Z" transform="translate(-311.78 -107.446)" fill="#263238"/>
      <path id="Path_3364" data-name="Path 3364" d="M355.726,125.6a14.721,14.721,0,0,1-2.016,3.259,2.148,2.148,0,0,0,1.8.339Z" transform="translate(-311.923 -107.971)" fill="#df5753"/>
      <path id="Path_3365" data-name="Path 3365" d="M357.037,133.017a.107.107,0,0,1-.107-.113.119.119,0,0,1,.119-.113,3.234,3.234,0,0,0,2.512-1.181.113.113,0,0,1,.157-.031.107.107,0,0,1,0,.157,3.422,3.422,0,0,1-2.682,1.281Z" transform="translate(-313.121 -110.188)" fill="#263238"/>
      <path id="Path_3366" data-name="Path 3366" d="M361.591,123.012a.22.22,0,0,1-.195,0,1.771,1.771,0,0,0-1.6-.17.213.213,0,0,1-.3-.107.232.232,0,0,1,.126-.3,2.2,2.2,0,0,1,2.022.188.22.22,0,0,1,.056.308.244.244,0,0,1-.113.082Z" transform="translate(-314.07 -106.733)" fill="#263238"/>
      <path id="Path_3367" data-name="Path 3367" d="M352.019,120.769a.2.2,0,0,1-.088-.05.22.22,0,0,1,0-.314,2.336,2.336,0,0,1,1.934-.779.207.207,0,0,1,.176.257.239.239,0,0,1-.264.188h0a1.884,1.884,0,0,0-1.526.628A.232.232,0,0,1,352.019,120.769Z" transform="translate(-311.237 -105.746)" fill="#263238"/>
      <path id="Path_3368" data-name="Path 3368" d="M372.278,161.29l-6.531-1.74s-6.406,15.769-8.666,16.8a134.737,134.737,0,0,0-14.187,8.585,6.544,6.544,0,0,0,.377,3.429c5.652-1.024,16.472-5.194,18.733-7.31C367.154,176.223,372.278,161.29,372.278,161.29Z" transform="translate(-307.871 -120.6)" fill="#e58a7b"/>
      <path id="Path_3369" data-name="Path 3369" d="M381.815,409.194a1.375,1.375,0,0,1-.9-.239.628.628,0,0,1-.195-.59.383.383,0,0,1,.207-.314c.534-.27,2.01.666,2.173.779a.107.107,0,0,1,.044.113.12.12,0,0,1-.088.088,5.685,5.685,0,0,1-1.243.163Zm-.628-.98a.333.333,0,0,0-.144,0,.145.145,0,0,0-.075.132.434.434,0,0,0,.126.408,2.246,2.246,0,0,0,1.67.088,4.258,4.258,0,0,0-1.6-.628Z" transform="translate(-321.967 -213.025)" fill="#407bff"/>
      <path id="Path_3370" data-name="Path 3370" d="M383.632,408.369h-.05c-.471-.264-1.356-1.3-1.256-1.827a.4.4,0,0,1,.377-.3.584.584,0,0,1,.471.144c.521.446.559,1.815.559,1.884a.119.119,0,0,1-.057.1A.114.114,0,0,1,383.632,408.369Zm-.842-1.915h-.044c-.144,0-.163.088-.17.113-.075.314.477,1.093.942,1.463a2.556,2.556,0,0,0-.471-1.482.377.377,0,0,0-.258-.094Z" transform="translate(-322.565 -212.369)" fill="#407bff"/>
      <path id="Path_3371" data-name="Path 3371" d="M355.033,408.057a1.784,1.784,0,0,1-1.187,0,.584.584,0,0,1-.308-.477.37.37,0,0,1,.126-.333c.509-.452,2.556.031,2.788.088a.107.107,0,0,1,.082.1.119.119,0,0,1-.069.113A8.522,8.522,0,0,1,355.033,408.057Zm-1.024-.747a.471.471,0,0,0-.2.088.138.138,0,0,0-.05.132.383.383,0,0,0,.2.32,3.111,3.111,0,0,0,2.1-.377A6.1,6.1,0,0,0,354.009,407.309Z" transform="translate(-311.858 -212.672)" fill="#407bff"/>
      <path id="Path_3372" data-name="Path 3372" d="M357.006,406.759h-.044c-.628-.113-1.884-.835-1.922-1.375,0-.126.057-.3.352-.4a.8.8,0,0,1,.628.038c.685.339,1.036,1.545,1.055,1.6a.091.091,0,0,1-.069.145Zm-1.482-1.589h-.063c-.195.069-.195.151-.195.176,0,.327.911.923,1.545,1.124a2.424,2.424,0,0,0-.879-1.256.584.584,0,0,0-.414-.044Z" transform="translate(-312.418 -211.883)" fill="#407bff"/>
      <path id="Path_3373" data-name="Path 3373" d="M339.45,199.37l-6.55,3.014-.76,1.846,2.418,1.626s4.515-.49,5.8-3.391Z" transform="translate(-303.899 -135.413)" fill="#e58a7b"/>
      <path id="Path_3374" data-name="Path 3374" d="M343.5,203.037a9.037,9.037,0,0,0-1.218-3.554l1.03-.772a9.948,9.948,0,0,1,1.457,4.113Z" transform="translate(-307.671 -135.168)" fill="#263238"/>
      <ellipse id="Ellipse_275" data-name="Ellipse 275" cx="1.237" cy="1.024" rx="1.237" ry="1.024" transform="matrix(0.927, -0.375, 0.375, 0.927, 34.268, 64.82)" fill="#263238"/>
      <path id="Path_3375" data-name="Path 3375" d="M326.3,206.607l.873.879,5.878-2.512-2.324-.8Z" transform="translate(-301.726 -137.199)" fill="#e58a7b"/>
      <path id="Path_3376" data-name="Path 3376" d="M361.059,390.83c.038,0,.892,2.405.892,2.405l-8.691,3.649-1.369-2.55Z" transform="translate(-311.246 -206.636)" opacity="0.2"/>
      <path id="Path_3377" data-name="Path 3377" d="M388.91,395.468c.038,0,.289,2.418.289,2.418h-9.521L379,395.11Z" transform="translate(-321.331 -208.229)" opacity="0.2"/>
      <path id="Path_3378" data-name="Path 3378" d="M383.94,156.794c1.727,5.57-5.024,13.188-5.024,13.188l-9.326-3.806a95.724,95.724,0,0,1,3.812-9.464C376.272,150.539,382.194,151.173,383.94,156.794Z" transform="translate(-317.83 -117.913)" fill="#407bff"/>
      <path id="Path_3379" data-name="Path 3379" d="M383.94,156.794c1.727,5.57-5.024,13.188-5.024,13.188l-9.326-3.806a95.724,95.724,0,0,1,3.812-9.464C376.272,150.539,382.194,151.173,383.94,156.794Z" transform="translate(-317.83 -117.913)" opacity="0.2"/>
    </g>
    <g id="Screen" transform="translate(119.056 64.778)">
      <rect id="Rectangle_1262" data-name="Rectangle 1262" width="4.013" height="0.647" transform="translate(30.715 0)" fill="#407bff"/>
      <rect id="Rectangle_1263" data-name="Rectangle 1263" width="10.789" height="0.647" transform="translate(86.189 36.378) rotate(-87.42)" fill="#407bff"/>
      <path id="Path_3380" data-name="Path 3380" d="M277.629,75.19h-74.1L196.63,229.5h74.1Z" transform="translate(-192.203 -72.289)" fill="#407bff"/>
      <path id="Path_3381" data-name="Path 3381" d="M274.109,78.57h-74.1l-6.9,154.312h74.1Z" transform="translate(-190.893 -73.546)" fill="#fafafa" opacity="0.56"/>
      <path id="Path_3382" data-name="Path 3382" d="M270.586,81.94h-74.1l-6.9,154.312h74.1Z" transform="translate(-189.58 -74.8)" fill="#407bff" opacity="0.07"/>
      <path id="Path_3383" data-name="Path 3383" d="M267.36,189.11H204.108l-.528,11.806h63.252Z" transform="translate(-194.788 -114.667)" fill="#fff"/>
      <path id="Path_3384" data-name="Path 3384" d="M239.294,175.39h-34.4l-.232,5.281h34.4Z" transform="translate(-195.19 -109.563)" fill="#407bff"/>
      <path id="Path_3385" data-name="Path 3385" d="M265.09,239.85H201.838l-.528,11.806h63.252Z" transform="translate(-193.944 -133.542)" fill="#fff"/>
      <path id="Path_3386" data-name="Path 3386" d="M258.829,284.04H216.294l-.634,14.149h42.534Z" transform="translate(-199.282 -149.981)" fill="#407bff" opacity="0.47"/>
      <path id="Path_3387" data-name="Path 3387" d="M254.638,301.607H212.1a.04.04,0,1,1-.057-.057l.628-14.155a.075.075,0,0,1,.075-.069h42.534a.04.04,0,1,1,.057.056l-.622,14.18A.075.075,0,0,1,254.638,301.607Zm-42.453-.151h42.384l.628-14h-42.39Z" transform="translate(-197.936 -151.201)" fill="#fff"/>
      <path id="Path_3388" data-name="Path 3388" d="M231.021,226.13h-28.4l-.232,5.288h28.392Z" transform="translate(-194.345 -128.438)" fill="#407bff"/>
      <path id="Path_3389" data-name="Path 3389" d="M264.039,118.849a16.629,16.629,0,0,1-3.492,9.451,16.893,16.893,0,0,1-13.32,6.638,15.26,15.26,0,0,1-15.361-16.089,16.956,16.956,0,0,1,16.8-16.089,15.248,15.248,0,0,1,15.373,16.089Z" transform="translate(-205.302 -82.544)" fill="#fff"/>
      <path id="Path_3390" data-name="Path 3390" d="M280.454,105.587a4.4,4.4,0,0,1-.929,2.512,4.49,4.49,0,0,1-3.536,1.765,4.057,4.057,0,0,1-4.082-4.277,4.515,4.515,0,0,1,4.465-4.277,4.051,4.051,0,0,1,4.082,4.277Z" transform="translate(-220.203 -82.005)" fill="#407bff"/>
      <path id="Path_3391" data-name="Path 3391" d="M213.026,197.394a2,2,0,0,1-1.978,1.884,1.8,1.8,0,0,1-1.809-1.884,2,2,0,0,1,1.978-1.884,1.8,1.8,0,0,1,1.809,1.884Z" transform="translate(-196.892 -117.048)" fill="#263238"/>
      <path id="Path_3392" data-name="Path 3392" d="M226.506,197.394a2,2,0,0,1-1.978,1.884,1.8,1.8,0,0,1-1.809-1.884,2,2,0,0,1,1.978-1.884,1.8,1.8,0,0,1,1.809,1.884Z" transform="translate(-201.907 -117.048)" fill="#263238"/>
      <path id="Path_3393" data-name="Path 3393" d="M240,197.394a2,2,0,0,1-1.978,1.884,1.8,1.8,0,0,1-1.809-1.884,2,2,0,0,1,1.978-1.884A1.8,1.8,0,0,1,240,197.394Z" transform="translate(-206.925 -117.048)" fill="#263238"/>
      <path id="Path_3394" data-name="Path 3394" d="M210.756,248.134a2,2,0,0,1-1.978,1.884,1.8,1.8,0,0,1-1.809-1.884,2,2,0,0,1,1.978-1.884,1.8,1.8,0,0,1,1.809,1.884Z" transform="translate(-196.048 -135.923)" fill="#263238"/>
      <path id="Path_3395" data-name="Path 3395" d="M224.236,248.134a2,2,0,0,1-1.978,1.884,1.8,1.8,0,0,1-1.809-1.884,2,2,0,0,1,1.978-1.884,1.8,1.8,0,0,1,1.809,1.884Z" transform="translate(-201.062 -135.923)" fill="#263238"/>
      <path id="Path_3396" data-name="Path 3396" d="M237.756,248.134a2,2,0,0,1-1.978,1.884,1.8,1.8,0,0,1-1.809-1.884,2,2,0,0,1,1.978-1.884,1.8,1.8,0,0,1,1.809,1.884Z" transform="translate(-206.092 -135.923)" fill="#263238"/>
      <path id="Path_3397" data-name="Path 3397" d="M251.216,248.134a2,2,0,0,1-1.978,1.884,1.8,1.8,0,0,1-1.809-1.884,2,2,0,0,1,1.978-1.884,1.8,1.8,0,0,1,1.809,1.884Z" transform="translate(-211.099 -135.923)" fill="#263238"/>
      <path id="Path_3398" data-name="Path 3398" d="M264.706,248.134a2,2,0,0,1-1.978,1.884,1.8,1.8,0,0,1-1.809-1.884,2,2,0,0,1,1.978-1.884,1.8,1.8,0,0,1,1.809,1.884Z" transform="translate(-216.117 -135.923)" fill="#263238"/>
      <path id="Path_3399" data-name="Path 3399" d="M260.527,115.966a6.87,6.87,0,0,1-6.795,6.506,6.167,6.167,0,0,1-6.217-6.506,6.87,6.87,0,0,1,6.795-6.506,6.167,6.167,0,0,1,6.217,6.506Z" transform="translate(-211.128 -85.037)" fill="#407bff"/>
      <path id="Path_3400" data-name="Path 3400" d="M262.124,140.458a16.893,16.893,0,0,1-13.314,6.638,15.26,15.26,0,0,1-12.711-6.632,18.888,18.888,0,0,1,13.232-5.024C254.683,135.44,259.342,137.418,262.124,140.458Z" transform="translate(-206.885 -94.702)" fill="#407bff"/>
      <path id="Path_3401" data-name="Path 3401" d="M260.527,115.966a6.87,6.87,0,0,1-6.795,6.506,6.167,6.167,0,0,1-6.217-6.506,6.87,6.87,0,0,1,6.795-6.506,6.167,6.167,0,0,1,6.217,6.506Z" transform="translate(-211.128 -85.037)" fill="#fff" opacity="0.1"/>
      <path id="Path_3402" data-name="Path 3402" d="M262.124,140.458a16.893,16.893,0,0,1-13.314,6.638,15.26,15.26,0,0,1-12.711-6.632,18.888,18.888,0,0,1,13.232-5.024C254.683,135.44,259.342,137.418,262.124,140.458Z" transform="translate(-206.885 -94.702)" fill="#fff" opacity="0.1"/>
    </g>
    <g id="Character_1" data-name="Character 1" transform="translate(68.301 119.585)">
      <path id="Path_3403" data-name="Path 3403" d="M124.354,211.119c-.6,1.306-1.218,2.738-1.771,4.139s-1.105,2.826-1.589,4.264a53.885,53.885,0,0,0-2.242,8.666l-.144.923a1.419,1.419,0,0,0,.044.471,4.81,4.81,0,0,0,.691,1.457,18.281,18.281,0,0,0,2.788,3.14,42.573,42.573,0,0,0,3.467,2.9c1.206.929,2.474,1.834,3.718,2.682l-1.168,2.2a44.534,44.534,0,0,1-8.447-4.842,20.228,20.228,0,0,1-3.768-3.567,8.9,8.9,0,0,1-1.5-2.682,6.01,6.01,0,0,1-.3-1.846v-.791l.063-.628a48.858,48.858,0,0,1,2.054-9.634c.49-1.551,1.011-3.083,1.608-4.591s1.212-2.97,1.972-4.5Z" transform="translate(-110.758 -176.832)" fill="#e58a7b"/>
      <path id="Path_3404" data-name="Path 3404" d="M136.214,256.1l4.44-2.248-1.149,4.88s-3.046.854-4.465-.628Z" transform="translate(-118.536 -193.557)" fill="#e58a7b"/>
      <path id="Path_3405" data-name="Path 3405" d="M147.362,254.648l-1.181,4.032-4.032.044,1.149-4.873Z" transform="translate(-121.181 -193.557)" fill="#e58a7b"/>
      <path id="Path_3406" data-name="Path 3406" d="M160.43,175a12.492,12.492,0,0,0,.992,2.512,1.017,1.017,0,0,1-.992.32Z" transform="translate(-127.981 -164.225)" fill="#df5753"/>
      <ellipse id="Ellipse_276" data-name="Ellipse 276" cx="0.471" cy="0.722" rx="0.471" ry="0.722" transform="translate(31.846 9.369)" fill="#263238"/>
      <path id="Path_3407" data-name="Path 3407" d="M160,172.636l.955-.276S160.49,173.107,160,172.636Z" transform="translate(-127.821 -163.242)" fill="#263238"/>
      <path id="Path_3408" data-name="Path 3408" d="M140.368,182.34c.571,2.926,1.143,8.283-.9,10.23,0,0,.8,2.964,6.23,2.964,5.972,0,2.857-2.964,2.857-2.964-3.259-.779-3.178-3.2-2.606-5.47Z" transform="translate(-120.184 -166.955)" fill="#e58a7b"/>
      <path id="Path_3409" data-name="Path 3409" d="M138.361,167.518c.3,4.88.32,6.952,2.788,9.458,3.705,3.768,9.64,2.33,10.8-2.512,1.049-4.4.383-11.631-4.4-13.571a6.669,6.669,0,0,0-9.194,6.625Z" transform="translate(-119.766 -158.789)" fill="#e58a7b"/>
      <path id="Path_3410" data-name="Path 3410" d="M136.082,162.82c-2.449.892-5.715.226-4.434,7.781,1.356,8-.729,10.632-.729,10.632a49.865,49.865,0,0,0,18.771-.119s-2.9-5.062-2.085-8.754c1.036-4.71.214-6.456.214-6.456S139.524,161.6,136.082,162.82Z" transform="translate(-117.004 -159.612)" fill="#263238"/>
      <path id="Path_3411" data-name="Path 3411" d="M155.64,174.976a4.917,4.917,0,0,0,.766,2.619c.659,1.017,1.444.628,1.645-.452.176-.948.044-2.625-.8-3.278S155.653,173.852,155.64,174.976Z" transform="translate(-126.199 -163.705)" fill="#e58a7b"/>
      <path id="Path_3412" data-name="Path 3412" d="M135.7,161.9c-.7-1.972,2.65-5.024,9.747-3.768s7.4,7.165,7.4,7.165l-1.432-1.708.063,1.8-7.291,1.4Z" transform="translate(-118.746 -157.842)" fill="#263238"/>
      <path id="Path_3413" data-name="Path 3413" d="M136.7,197.915h0a1.105,1.105,0,0,1,.911-1.256c2.211-.364,7.228-1.105,9.759-.754,1.884.257,2.374,1.357,2.455,2.255a1.105,1.105,0,0,1-1.156,1.193l-10.921-.5A1.112,1.112,0,0,1,136.7,197.915Z" transform="translate(-119.15 -171.967)" fill="#407bff"/>
      <path id="Path_3414" data-name="Path 3414" d="M136.7,197.915h0a1.105,1.105,0,0,1,.911-1.256c2.211-.364,7.228-1.105,9.759-.754,1.884.257,2.374,1.357,2.455,2.255a1.105,1.105,0,0,1-1.156,1.193l-10.921-.5A1.112,1.112,0,0,1,136.7,197.915Z" transform="translate(-119.15 -171.967)" opacity="0.6"/>
      <path id="Path_3415" data-name="Path 3415" d="M146.76,368.421l4.051,2.813,6.776-9.188-4.051-2.807Z" transform="translate(-122.896 -232.762)" fill="#e58a7b"/>
      <path id="Path_3416" data-name="Path 3416" d="M131.72,367.815,136,370.252l6-9.715-4.277-2.437Z" transform="translate(-117.301 -232.338)" fill="#e58a7b"/>
      <path id="Path_3417" data-name="Path 3417" d="M159.522,362.047l-3.492,4.735-4.051-2.807,3.492-4.735Z" transform="translate(-124.838 -232.762)" fill="#cf6f64"/>
      <path id="Path_3418" data-name="Path 3418" d="M139.43,358.1l4.283,2.443-3.09,5.005-4.283-2.443Z" transform="translate(-119.02 -232.338)" fill="#cf6f64"/>
      <path id="Path_3419" data-name="Path 3419" d="M142.843,248s15.813,19.933,12.849,38.986c-2.4,15.392-16.272,36.236-16.272,36.236l-6.525-3.24a213.118,213.118,0,0,0,11.744-28.536,21.094,21.094,0,0,0-2.512-18.275c-8.013-11.7-20.843-4.741-12.208-25.17Z" transform="translate(-115.562 -191.381)" fill="#407bff"/>
      <path id="Path_3420" data-name="Path 3420" d="M142.843,248s15.813,19.933,12.849,38.986c-2.4,15.392-16.272,36.236-16.272,36.236l-6.525-3.24a213.118,213.118,0,0,0,11.744-28.536,21.094,21.094,0,0,0-2.512-18.275c-8.013-11.7-20.843-4.741-12.208-25.17Z" transform="translate(-115.562 -191.381)" opacity="0.6"/>
      <path id="Path_3421" data-name="Path 3421" d="M163.188,267.026l-2.3-2.286c0,.182,4.453,27.663,5.7,35.388a47.1,47.1,0,0,0,1.683-6.908C169.751,283.875,166.68,274.323,163.188,267.026Z" transform="translate(-128.152 -197.608)" opacity="0.4"/>
      <path id="Path_3422" data-name="Path 3422" d="M152.47,248s19.041,25.045,19.575,40.066c.446,12.56-20.724,36.895-20.724,36.895l-6.154-3.981s12.39-17.283,15.512-31.4c-1.2-14-26.728-41.58-26.728-41.58Z" transform="translate(-118.131 -191.381)" fill="#407bff"/>
      <path id="Path_3423" data-name="Path 3423" d="M152.47,248s19.041,25.045,19.575,40.066c.446,12.56-20.724,36.895-20.724,36.895l-6.154-3.981s12.39-17.283,15.512-31.4c-1.2-14-26.728-41.58-26.728-41.58Z" transform="translate(-118.131 -191.381)" opacity="0.6"/>
      <path id="Path_3424" data-name="Path 3424" d="M123.568,200.359c-2.041.484-3.988,7.881-3.988,7.881l7.95,5.307s2.65-5.853,1.727-8.415C128.3,202.469,126.124,199.75,123.568,200.359Z" transform="translate(-112.785 -173.626)" fill="#407bff"/>
      <path id="Path_3425" data-name="Path 3425" d="M128.083,208l-.553,6.45,2.958,1.984a26.482,26.482,0,0,0,1.8-5.74Z" transform="translate(-115.742 -176.501)" opacity="0.2"/>
      <path id="Path_3426" data-name="Path 3426" d="M151.841,199.8s2.349.829-2.355,29.736H129.478c.333-8.164.345-13.188-3.548-29.88a59.031,59.031,0,0,1,8.5-1.118,63.66,63.66,0,0,1,9.087,0C147.42,198.892,151.841,199.8,151.841,199.8Z" transform="translate(-115.147 -172.919)" fill="#407bff"/>
      <path id="Path_3427" data-name="Path 3427" d="M167.588,206.745c.452,1.256.936,2.606,1.432,3.912s.98,2.638,1.488,3.95l1.539,3.944.389.986.195.49.1.245v.038a1.382,1.382,0,0,0-.44-.389,1.746,1.746,0,0,0-.823-.239,1.62,1.62,0,0,0-.7.126c-.283.138-.289.195-.283.182a.823.823,0,0,0,.138-.144,8.963,8.963,0,0,0,.9-1.463c.3-.578.578-1.193.86-1.815.553-1.256,1.061-2.556,1.576-3.869s.986-2.644,1.463-3.982l1.432-4.007,2.418.628c-.477,2.864-1.1,5.652-1.834,8.491-.358,1.413-.779,2.813-1.256,4.226-.239.71-.5,1.413-.81,2.135a13.1,13.1,0,0,1-1.193,2.273,5.588,5.588,0,0,1-.546.678,3.5,3.5,0,0,1-1.143.81,2.825,2.825,0,0,1-1.218.226,2.8,2.8,0,0,1-1.325-.4,3.328,3.328,0,0,1-1.143-1.187c-.094-.157-.176-.327-.232-.44l-.119-.245-.239-.49-.477-.973c-.628-1.306-1.256-2.619-1.8-3.95s-1.124-2.669-1.664-4.019-1.024-2.694-1.482-4.151Z" transform="translate(-128.859 -175.277)" fill="#e58a7b"/>
      <path id="Path_3428" data-name="Path 3428" d="M163.719,200.529c2.405.572,5.106,7.68,5.106,7.68l-7.147,6.092s-4.635-7.75-3.693-10.305C158.959,201.326,160.579,199.781,163.719,200.529Z" transform="translate(-127.025 -173.651)" fill="#407bff"/>
      <path id="Path_3429" data-name="Path 3429" d="M186.321,199.948l2.512-2.1,1.746,2.719-1.256,2.273s-2.047,1.884-3.862.923h0a3.259,3.259,0,0,1,.86-3.818Z" transform="translate(-137.186 -172.725)" fill="#e58a7b"/>
      <path id="Path_3430" data-name="Path 3430" d="M195.523,197.856l-.188.685-3.975.666-.389-1.356Z" transform="translate(-139.342 -172.725)" fill="#e58a7b"/>
      <path id="Path_3431" data-name="Path 3431" d="M158.152,366.98l-7.172-4.635,1.287-2.236,8.057,4.955Z" transform="translate(-124.466 -233.085)" fill="#407bff"/>
      <path id="Path_3432" data-name="Path 3432" d="M141.913,376.236a4.3,4.3,0,0,1-1.777-.628.113.113,0,0,1-.057-.113.119.119,0,0,1,.082-.1c.195-.063,1.884-.584,2.374-.176a.4.4,0,0,1,.132.377.659.659,0,0,1-.352.546.9.9,0,0,1-.4.094Zm-1.413-.685c.779.4,1.407.546,1.708.4a.439.439,0,0,0,.226-.364.163.163,0,0,0-.057-.169c-.257-.22-1.2-.057-1.89.132Z" transform="translate(-120.41 -238.648)" fill="#263238"/>
      <path id="Path_3433" data-name="Path 3433" d="M140.181,374.851a.119.119,0,0,1-.113-.151c0-.056.408-1.419,1.055-1.733a.628.628,0,0,1,.515,0,.408.408,0,0,1,.289.421c-.044.565-1.193,1.344-1.721,1.476Zm1.218-1.714a.4.4,0,0,0-.176.044,2.669,2.669,0,0,0-.86,1.369c.553-.232,1.306-.848,1.331-1.193,0-.057,0-.126-.144-.188a.383.383,0,0,0-.151-.05Z" transform="translate(-120.405 -237.848)" fill="#263238"/>
      <path id="Path_3434" data-name="Path 3434" d="M155.934,380.264c-.71,0-1.7-.911-2.236-1.47a.119.119,0,0,1,0-.132.126.126,0,0,1,.119-.063c.251.031,2.43.327,2.744.942a.377.377,0,0,1,0,.371.628.628,0,0,1-.5.345Zm-1.821-1.382c.791.772,1.488,1.2,1.884,1.143a.421.421,0,0,0,.32-.232.144.144,0,0,0,0-.144c-.157-.339-1.319-.628-2.2-.8Z" transform="translate(-125.47 -239.964)" fill="#263238"/>
      <path id="Path_3435" data-name="Path 3435" d="M154.176,378.194a2.361,2.361,0,0,1-.421-.031.119.119,0,0,1-.069-.188c.038-.044.886-1.068,1.689-1.137a.848.848,0,0,1,.628.2c.245.214.232.4.17.521C156,377.987,154.91,378.194,154.176,378.194Zm-.163-.239c.7.038,1.821-.195,1.972-.5,0,0,.05-.1-.113-.245a.628.628,0,0,0-.471-.151,2.7,2.7,0,0,0-1.388.911Z" transform="translate(-125.463 -239.307)" fill="#263238"/>
      <path id="Path_3436" data-name="Path 3436" d="M135.989,374.017l-5.325-1.507a.389.389,0,0,0-.471.22l-1.8,4.044a.791.791,0,0,0,.521,1.055c1.884.5,2.795.628,5.137,1.3,1.438.408,3.5,1.149,5.495,1.714s2.65-1.375,1.884-1.79a9.729,9.729,0,0,1-4.723-4.522A1.256,1.256,0,0,0,135.989,374.017Z" transform="translate(-116.044 -237.692)" fill="#407bff"/>
      <path id="Path_3437" data-name="Path 3437" d="M149.042,375.836,144.5,372.7a.389.389,0,0,0-.515.05l-3.014,3.24a.791.791,0,0,0,.151,1.168c1.6,1.074,2.43,1.513,4.434,2.9,1.256.854,3.686,2.751,5.382,3.925s2.958-.44,2.355-1.08a13.743,13.743,0,0,1-3.768-6.33A1.257,1.257,0,0,0,149.042,375.836Z" transform="translate(-120.669 -237.74)" fill="#407bff"/>
      <path id="Path_3438" data-name="Path 3438" d="M143.215,364.709l-8.2-4.076.848-2.223,8.754,4.3Z" transform="translate(-118.529 -232.453)" fill="#407bff"/>
      <path id="Path_3439" data-name="Path 3439" d="M130.681,246.044l-.691,1.809c-.069.138.094.283.327.283h20.774c.182,0,.333-.088.339-.2l.182-1.79c0-.126-.144-.226-.339-.226H131.008A.364.364,0,0,0,130.681,246.044Z" transform="translate(-116.652 -190.605)" fill="#407bff"/>
      <path id="Path_3440" data-name="Path 3440" d="M130.681,246.044l-.691,1.809c-.069.138.094.283.327.283h20.774c.182,0,.333-.088.339-.2l.182-1.79c0-.126-.144-.226-.339-.226H131.008A.364.364,0,0,0,130.681,246.044Z" transform="translate(-116.652 -190.605)" fill="#fff" opacity="0.4"/>
      <path id="Path_3441" data-name="Path 3441" d="M135.882,248.2h-.54c-.107,0-.188-.057-.182-.126l.257-2.33c0-.069.1-.126.207-.126h.54c.107,0,.188.057.182.126l-.257,2.33C136.083,248.145,135.989,248.2,135.882,248.2Z" transform="translate(-118.581 -190.495)" fill="#407bff"/>
      <path id="Path_3442" data-name="Path 3442" d="M156.282,248.2h-.54c-.107,0-.188-.057-.182-.126l.257-2.33c0-.069.1-.126.207-.126h.54c.107,0,.188.057.182.126l-.257,2.33A.2.2,0,0,1,156.282,248.2Z" transform="translate(-126.169 -190.495)" fill="#407bff"/>
      <path id="Path_3443" data-name="Path 3443" d="M108.76,416.418c0,.672,7.479,1.218,16.768,1.225s16.849-.546,16.881-1.218-7.479-1.218-16.768-1.225S108.785,415.746,108.76,416.418Z" transform="translate(-108.76 -253.579)" fill="#f5f5f5"/>
      <path id="Path_3444" data-name="Path 3444" d="M139.362,365.992a41.817,41.817,0,0,1-8.277-3.14l-.176-.088V349.287h5.985a1.793,1.793,0,1,0,0-3.586h-5.985V284.27h-3.586V345.7h-5.985a1.793,1.793,0,1,0,0,3.586h5.985v13.458l-.176.088a39.578,39.578,0,0,1-8.277,3.14.879.879,0,0,0,.245,1.721h20a.879.879,0,0,0,.245-1.7Z" transform="translate(-112.288 -204.873)" fill="#e0e0e0"/>
      <rect id="Rectangle_1264" data-name="Rectangle 1264" width="28.838" height="13.144" rx="5.18" transform="translate(2.412 73.142)" fill="#407bff"/>
      <path id="Path_3445" data-name="Path 3445" d="M117.45,295.25v1.143c0,.942,1.024,1.714,2.28,1.714h18.212c1.256,0,2.28-.772,2.28-1.714V295.25Z" transform="translate(-111.993 -208.958)" fill="#407bff"/>
      <path id="Path_3446" data-name="Path 3446" d="M117.45,295.25v1.143c0,.942,1.024,1.714,2.28,1.714h18.212c1.256,0,2.28-.772,2.28-1.714V295.25Z" transform="translate(-111.993 -208.958)" fill="#fff" opacity="0.3"/>
    </g>
  </g>
</svg>
